<?xml version="1.0" encoding="UTF-8" standalone="no"?>
<!-- Created with Inkscape (http://www.inkscape.org/) -->

<svg
   xmlns:dc="http://purl.org/dc/elements/1.1/"
   xmlns:cc="http://creativecommons.org/ns#"
   xmlns:rdf="http://www.w3.org/1999/02/22-rdf-syntax-ns#"
   xmlns:svg="http://www.w3.org/2000/svg"
   xmlns="http://www.w3.org/2000/svg"
   xmlns:sodipodi="http://sodipodi.sourceforge.net/DTD/sodipodi-0.dtd"
   xmlns:inkscape="http://www.inkscape.org/namespaces/inkscape"
   width="215mm"
   height="215mm"
   viewBox="0 0 215 215"
   version="1.1"
   id="svg8"
   inkscape:version="0.92.1 r15371"
   sodipodi:docname="social-icon-github.svg">
  <defs
     id="defs2" />
  <sodipodi:namedview
     id="base"
     pagecolor="#ffffff"
     bordercolor="#666666"
     borderopacity="1.0"
     inkscape:pageopacity="0.0"
     inkscape:pageshadow="2"
     inkscape:zoom="0.49497475"
     inkscape:cx="314.01023"
     inkscape:cy="272.69333"
     inkscape:document-units="mm"
     inkscape:current-layer="g4547"
     showgrid="false"
     inkscape:window-width="1920"
     inkscape:window-height="986"
     inkscape:window-x="-11"
     inkscape:window-y="-11"
     inkscape:window-maximized="1" />
  <metadata
     id="metadata5">
    <rdf:RDF>
      <cc:Work
         rdf:about="">
        <dc:format>image/svg+xml</dc:format>
        <dc:type
           rdf:resource="http://purl.org/dc/dcmitype/StillImage" />
        <dc:title></dc:title>
      </cc:Work>
    </rdf:RDF>
  </metadata>
  <g
     inkscape:label="Layer 1"
     inkscape:groupmode="layer"
     id="layer1"
     style="display:inline"
     transform="translate(0,-82)">
    <g
       transform="matrix(5.6970998,0,0,-5.6730985,-598.79892,290.4988)"
       inkscape:label="ink_ext_XXXXXX"
       id="g4547">
      <path
         inkscape:connector-curvature="0"
         id="path5306"
         style="display:inline;fill:#111111;fill-opacity:1;fill-rule:evenodd;stroke:none;stroke-width:0.03134446"
         d="m 123.97433,36.539719 c -10.29865,0 -18.64977,-8.600842 -18.64977,-19.210969 0,-8.4879102 5.34372,-15.6890019 12.75386,-18.22923398 0.93204,-0.17783682 1.27424,0.41672298 1.27424,0.9241553 0,0.45810696 -0.0158,1.97142818 -0.0249,3.57668798 -5.18837,-1.1621093 -6.28319,2.2666431 -6.28319,2.2666431 -0.84835,2.2205174 -2.07073,2.8109628 -2.07073,2.8109628 -1.69208,1.1923309 0.12762,1.1678391 0.12762,1.1678391 1.87274,-0.1352062 2.85884,-1.9800161 2.85884,-1.9800161 1.66336,-2.9366181 4.36287,-2.0875402 5.42711,-1.59667 0.16759,1.2416428 0.6507,2.089447 1.18406,2.5688616 -4.14236,0.4857464 -8.49692,2.1330302 -8.49692,9.4941422 0,2.0974 0.72858,3.811143 1.92156,5.156493 -0.19351,0.484152 -0.83193,2.437801 0.18055,5.083967 0,0 1.5661,0.516317 5.12999,-1.969196 1.48764,0.425637 3.08307,0.639113 4.66801,0.646433 1.58491,-0.0069 3.18159,-0.220811 4.67201,-0.646433 3.55962,2.485513 5.12351,1.969196 5.12351,1.969196 1.01515,-2.646166 0.37656,-4.599774 0.18305,-5.083967 1.19577,-1.34535 1.91939,-3.059093 1.91939,-5.156493 0,-7.378606 -4.36288,-9.0032778 -8.51574,-9.4788732 0.66891,-0.5961597 1.26496,-1.7652763 1.26496,-3.5575919 0,-2.5704614 -0.0201,-4.63923184 -0.0201,-5.27198558 0,-0.51122257 0.33567,-1.11025582 1.28103,-0.92160595 7.4061,2.54309593 12.74302,9.74164223 12.74302,18.22668463 0,10.610127 -8.34987,19.210969 -18.64942,19.210969" />
      <g
         transform="matrix(0.06192234,0,0,0.06218432,184.00467,30.146221)"
         inkscape:label="ink_ext_XXXXXX"
         id="g5298">
        <g
           transform="scale(0.1)"
           id="g5300">
          <path
             inkscape:connector-curvature="0"
             id="path5394"
             style="fill:#ffffff;fill-opacity:1;fill-rule:evenodd;stroke:none"
             d="m 1526.08,1685.45 c -89.94,0 -162.88,-72.93 -162.88,-162.9 0,-71.97 46.67,-133.02 111.4,-154.56 8.15,-1.5 11.12,3.53 11.12,7.85 0,3.87 -0.14,14.11 -0.22,27.7 -45.31,-9.84 -54.87,21.84 -54.87,21.84 -7.41,18.82 -18.09,23.83 -18.09,23.83 -14.79,10.1 1.12,9.9 1.12,9.9 16.35,-1.15 24.95,-16.79 24.95,-16.79 14.53,-24.89 38.13,-17.7 47.41,-13.53 1.48,10.52 5.69,17.7 10.34,21.77 -36.17,4.11 -74.2,18.09 -74.2,80.51 0,17.78 6.35,32.33 16.77,43.71 -1.68,4.12 -7.27,20.69 1.6,43.11 0,0 13.67,4.38 44.79,-16.7 12.99,3.62 26.93,5.42 40.78,5.49 13.84,-0.07 27.77,-1.87 40.78,-5.49 31.1,21.08 44.75,16.7 44.75,16.7 8.89,-22.42 3.3,-38.99 1.63,-43.11 10.44,-11.38 16.74,-25.93 16.74,-43.71 0,-62.58 -38.09,-76.35 -74.37,-80.38 5.84,-5.03 11.05,-14.97 11.05,-30.16 0,-21.78 -0.2,-39.35 -0.2,-44.69 0,-4.36 2.94,-9.43 11.2,-7.84 64.68,21.59 111.31,82.6 111.31,154.55 0,89.97 -72.94,162.9 -162.91,162.9" />
          <path
             inkscape:connector-curvature="0"
             id="path5396"
             style="fill:#ffffff;fill-opacity:1;fill-rule:evenodd;stroke:none"
             d="m 3506.09,2175.54 c -333.47,0 -603.88,-270.35 -603.88,-603.87 0,-266.81 173.03,-493.17 412.97,-573.022 30.18,-5.589 41.26,13.102 41.26,29.052 0,14.4 -0.56,61.97 -0.82,112.43 -168,-36.53 -203.45,71.25 -203.45,71.25 -27.47,69.8 -67.05,88.36 -67.05,88.36 -54.79,37.48 4.13,36.71 4.13,36.71 60.64,-4.25 92.57,-62.23 92.57,-62.23 53.86,-92.32 141.27,-65.63 175.73,-50.2 5.42,39.02 21.07,65.68 38.34,80.75 -134.13,15.27 -275.13,67.05 -275.13,298.44 0,65.93 23.59,119.8 62.22,162.09 -6.27,15.22 -26.94,76.63 5.85,159.81 0,0 50.71,16.23 166.11,-61.9 48.17,13.38 99.83,20.09 151.15,20.32 51.32,-0.23 103.02,-6.94 151.28,-20.32 115.26,78.13 165.9,61.9 165.9,61.9 32.87,-83.18 12.19,-144.59 5.92,-159.81 38.72,-42.29 62.15,-96.16 62.15,-162.09 0,-231.94 -141.27,-283.01 -275.74,-297.96 21.66,-18.74 40.96,-55.49 40.96,-111.83 0,-80.79 -0.7,-145.82 -0.7,-165.72 0,-16.07 10.87,-34.899 41.48,-28.97 239.81,79.94 412.62,306.22 412.62,572.94 0,333.52 -270.37,603.87 -603.87,603.87" />
          <path
             inkscape:connector-curvature="0"
             id="path5398"
             style="fill:#ffffff;fill-opacity:1;fill-rule:nonzero;stroke:none"
             d="m 3130.93,1308.51 c -1.33,-3.01 -6.05,-3.9 -10.35,-1.84 -4.38,1.97 -6.84,6.06 -5.42,9.07 1.3,3.09 6.03,3.94 10.4,1.89 4.39,-1.98 6.89,-6.11 5.37,-9.12 v 0" />
          <path
             inkscape:connector-curvature="0"
             id="path5400"
             style="fill:#ffffff;fill-opacity:1;fill-rule:nonzero;stroke:none"
             d="m 3155.39,1281.23 c -2.88,-2.67 -8.51,-1.43 -12.33,2.79 -3.95,4.21 -4.69,9.84 -1.77,12.55 2.97,2.67 8.43,1.42 12.39,-2.79 3.95,-4.26 4.72,-9.85 1.71,-12.55 v 0" />
          <path
             inkscape:connector-curvature="0"
             id="path5402"
             style="fill:#ffffff;fill-opacity:1;fill-rule:nonzero;stroke:none"
             d="m 3179.2,1246.45 c -3.7,-2.57 -9.75,-0.16 -13.49,5.21 -3.7,5.37 -3.7,11.81 0.08,14.39 3.75,2.58 9.71,0.26 13.5,-5.07 3.69,-5.45 3.69,-11.9 -0.09,-14.53 v 0" />
          <path
             inkscape:connector-curvature="0"
             id="path5404"
             style="fill:#ffffff;fill-opacity:1;fill-rule:nonzero;stroke:none"
             d="m 3211.82,1212.85 c -3.31,-3.65 -10.36,-2.67 -15.52,2.31 -5.28,4.87 -6.75,11.78 -3.43,15.43 3.35,3.66 10.44,2.63 15.64,-2.31 5.24,-4.86 6.84,-11.82 3.31,-15.43 v 0" />
          <path
             inkscape:connector-curvature="0"
             id="path5406"
             style="fill:#ffffff;fill-opacity:1;fill-rule:nonzero;stroke:none"
             d="m 3256.82,1193.34 c -1.46,-4.73 -8.25,-6.88 -15.09,-4.87 -6.83,2.07 -11.3,7.61 -9.92,12.39 1.42,4.76 8.24,7 15.13,4.85 6.82,-2.06 11.3,-7.56 9.88,-12.37 v 0" />
          <path
             inkscape:connector-curvature="0"
             id="path5408"
             style="fill:#ffffff;fill-opacity:1;fill-rule:nonzero;stroke:none"
             d="m 3306.24,1189.72 c 0.17,-4.98 -5.63,-9.11 -12.81,-9.19 -7.22,-0.17 -13.06,3.86 -13.14,8.76 0,5.03 5.67,9.12 12.89,9.24 7.18,0.14 13.06,-3.86 13.06,-8.81 v 0" />
          <path
             inkscape:connector-curvature="0"
             id="path5410"
             style="fill:#ffffff;fill-opacity:1;fill-rule:nonzero;stroke:none"
             d="m 3352.23,1197.55 c 0.86,-4.86 -4.13,-9.85 -11.26,-11.17 -7.01,-1.29 -13.5,1.71 -14.39,6.53 -0.87,4.98 4.21,9.97 11.21,11.26 7.14,1.24 13.53,-1.68 14.44,-6.62 v 0" />
          <path
             inkscape:connector-curvature="0"
             id="path5466"
             style="fill:#176fc1;fill-opacity:1;fill-rule:nonzero;stroke:none"
             d="m 3182.57,549.859 v 9 h 10.44 v 9.243 c 0,5.039 1.46,8.867 4.39,11.468 2.91,2.602 7.16,3.891 12.77,3.891 0.96,0 2.06,-0.082 3.3,-0.242 1.24,-0.16 2.34,-0.387 3.3,-0.719 v -8.871 c -0.88,0.312 -1.83,0.531 -2.88,0.652 -1.04,0.117 -2,0.188 -2.88,0.188 -2.48,0 -4.39,-0.489 -5.76,-1.438 -1.36,-0.961 -2.03,-2.812 -2.03,-5.531 v -8.641 h 11.99 v -9 h -11.99 V 496.82 h -10.21 v 53.039 h -10.44" />
        </g>
      </g>
    </g>
  </g>
  <g
     inkscape:groupmode="layer"
     id="layer2"
     inkscape:label="Layer 2"
     transform="translate(0,-82)" />
</svg>
