<?xml version="1.0" encoding="utf-8"?>
<!-- Generator: Adobe Illustrator 23.0.1, SVG Export Plug-In . SVG Version: 6.00 Build 0)  -->
<svg version="1.1" id="Layer_1" xmlns="http://www.w3.org/2000/svg" xmlns:xlink="http://www.w3.org/1999/xlink" x="0px" y="0px"
	 viewBox="0 0 360 216" style="enable-background:new 0 0 360 216;" xml:space="preserve">
<style type="text/css">
	.st0{fill:#008CFF;}
	.st1{stroke:#FFFFFF;stroke-miterlimit:10;}
	.st2{fill:none;stroke:#008CFF;stroke-width:2.88;stroke-linecap:round;stroke-linejoin:round;}
</style>
<path class="st0" d="M107.3,114.3c60.4,0,49.4,81.2,49.4,81.2c-51.7,18.9-102,0.2-102,0.2C58.3,194.2,40.2,114.3,107.3,114.3z"/>
<g>
	<g>
		<path class="st1" d="M86.2,25.3v91.9c0,4.7,8.9,8.6,19.9,8.6s19.9-3.8,19.9-8.6V25.3H86.2z"/>
	</g>
</g>
<g>
	<g>
		<g>
			<ellipse class="st1" cx="106.1" cy="25.3" rx="19.9" ry="12.2"/>
		</g>
	</g>
</g>
<g>
	<g>
		<path class="st2" d="M257.2,176.3c0,0.1,8.6,3,8.6,3.1c-1.6,4.5-16.2-2.4-17.8,2c-0.5,1.5,4.9,0.1,4.3,1.6
			c-2,5.5-20.2-5.1-22.2,0.4c-1,2.7,17.6,3.3,16.6,6.1c-2.1,5.7-20.8-5.5-22.9,0.2c-1.2,3.4,3.6-2.6,2.3,0.8c-2.2,6-22-6.3-24.2-0.3
			c-1.2,3.4,19.3,3.2,18,6.6"/>
		<path class="st2" d="M217.9,158.4c-3.8,10.3,47,5.4,43.2,15.7"/>
		<path class="st2" d="M267.6,172.4c0,0.1,8.5,3,8.5,3.1"/>
		<path class="st2" d="M308.5,182.4c-1.7,4.6,23.8,3.5,22.1,8"/>
		<path class="st2" d="M331.6,155.9c-0.2,0.7,1.4-0.2,1.2,0.4c-1.5,4.2-15-1.6-16.5,2.5c-1.2,3.2,7.3-1,6.1,2.2
			c-1.9,5.2-18.8-4.2-20.7,1c-1.1,3,12.5,1.1,11.4,4.2c-2.3,6.4-23.5-7.3-25.8-0.9c-0.6,1.6,8.3,1.2,7.7,2.8
			c-1.5,4.1-14.7-1.4-16.1,2.6c-0.1,0.4,0.3-0.3,0.2,0.1"/>
	</g>
</g>
</svg>
