<?xml version="1.0" encoding="UTF-8" standalone="no"?>
<!-- Created with Inkscape (http://www.inkscape.org/) -->

<svg
   xmlns:dc="http://purl.org/dc/elements/1.1/"
   xmlns:cc="http://creativecommons.org/ns#"
   xmlns:rdf="http://www.w3.org/1999/02/22-rdf-syntax-ns#"
   xmlns:svg="http://www.w3.org/2000/svg"
   xmlns="http://www.w3.org/2000/svg"
   xmlns:sodipodi="http://sodipodi.sourceforge.net/DTD/sodipodi-0.dtd"
   xmlns:inkscape="http://www.inkscape.org/namespaces/inkscape"
   width="215mm"
   height="215mm"
   viewBox="0 0 215 215"
   version="1.1"
   id="svg8"
   inkscape:version="0.92.1 r15371"
   sodipodi:docname="homepage-icon-badlydrawn.svg">
  <defs
     id="defs2">
    <inkscape:path-effect
       effect="skeletal"
       id="path-effect4638"
       is_visible="true"
       pattern="M 0,5 C 0,2.24 2.24,0 5,0 7.76,0 10,2.24 10,5 10,7.76 7.76,10 5,10 2.24,10 0,7.76 0,5 Z"
       copytype="single_stretched"
       prop_scale="0.26458333"
       scale_y_rel="false"
       spacing="0"
       normal_offset="0"
       tang_offset="0"
       prop_units="false"
       vertical_pattern="false"
       fuse_tolerance="0" />
    <inkscape:path-effect
       effect="skeletal"
       id="path-effect4634"
       is_visible="true"
       pattern="M 0,5 C 0,2.24 2.24,0 5,0 7.76,0 10,2.24 10,5 10,7.76 7.76,10 5,10 2.24,10 0,7.76 0,5 Z"
       copytype="single_stretched"
       prop_scale="0.26458333"
       scale_y_rel="false"
       spacing="0"
       normal_offset="0"
       tang_offset="0"
       prop_units="false"
       vertical_pattern="false"
       fuse_tolerance="0" />
    <inkscape:path-effect
       effect="skeletal"
       id="path-effect4630"
       is_visible="true"
       pattern="M 0,5 C 0,2.24 2.24,0 5,0 7.76,0 10,2.24 10,5 10,7.76 7.76,10 5,10 2.24,10 0,7.76 0,5 Z"
       copytype="single_stretched"
       prop_scale="0.26458333"
       scale_y_rel="false"
       spacing="0"
       normal_offset="0"
       tang_offset="0"
       prop_units="false"
       vertical_pattern="false"
       fuse_tolerance="0" />
    <inkscape:path-effect
       effect="skeletal"
       id="path-effect4626"
       is_visible="true"
       pattern="M 0,5 C 0,2.24 2.24,0 5,0 7.76,0 10,2.24 10,5 10,7.76 7.76,10 5,10 2.24,10 0,7.76 0,5 Z"
       copytype="single_stretched"
       prop_scale="0.26458333"
       scale_y_rel="false"
       spacing="0"
       normal_offset="0"
       tang_offset="0"
       prop_units="false"
       vertical_pattern="false"
       fuse_tolerance="0" />
    <inkscape:path-effect
       effect="skeletal"
       id="path-effect4622"
       is_visible="true"
       pattern="M 0,5 C 0,2.24 2.24,0 5,0 7.76,0 10,2.24 10,5 10,7.76 7.76,10 5,10 2.24,10 0,7.76 0,5 Z"
       copytype="single_stretched"
       prop_scale="0.26458333"
       scale_y_rel="false"
       spacing="0"
       normal_offset="0"
       tang_offset="0"
       prop_units="false"
       vertical_pattern="false"
       fuse_tolerance="0" />
    <inkscape:path-effect
       effect="skeletal"
       id="path-effect4618"
       is_visible="true"
       pattern="M 0,5 C 0,2.24 2.24,0 5,0 7.76,0 10,2.24 10,5 10,7.76 7.76,10 5,10 2.24,10 0,7.76 0,5 Z"
       copytype="single_stretched"
       prop_scale="0.26458333"
       scale_y_rel="false"
       spacing="0"
       normal_offset="0"
       tang_offset="0"
       prop_units="false"
       vertical_pattern="false"
       fuse_tolerance="0" />
    <inkscape:path-effect
       effect="skeletal"
       id="path-effect4614"
       is_visible="true"
       pattern="M 0,5 C 0,2.24 2.24,0 5,0 7.76,0 10,2.24 10,5 10,7.76 7.76,10 5,10 2.24,10 0,7.76 0,5 Z"
       copytype="single_stretched"
       prop_scale="0.26458333"
       scale_y_rel="false"
       spacing="0"
       normal_offset="0"
       tang_offset="0"
       prop_units="false"
       vertical_pattern="false"
       fuse_tolerance="0" />
    <inkscape:path-effect
       effect="skeletal"
       id="path-effect4610"
       is_visible="true"
       pattern="M 0,5 C 0,2.24 2.24,0 5,0 7.76,0 10,2.24 10,5 10,7.76 7.76,10 5,10 2.24,10 0,7.76 0,5 Z"
       copytype="single_stretched"
       prop_scale="0.26458333"
       scale_y_rel="false"
       spacing="0"
       normal_offset="0"
       tang_offset="0"
       prop_units="false"
       vertical_pattern="false"
       fuse_tolerance="0" />
    <inkscape:path-effect
       effect="skeletal"
       id="path-effect4606"
       is_visible="true"
       pattern="M 0,5 C 0,2.24 2.24,0 5,0 7.76,0 10,2.24 10,5 10,7.76 7.76,10 5,10 2.24,10 0,7.76 0,5 Z"
       copytype="single_stretched"
       prop_scale="0.26458333"
       scale_y_rel="false"
       spacing="0"
       normal_offset="0"
       tang_offset="0"
       prop_units="false"
       vertical_pattern="false"
       fuse_tolerance="0" />
    <filter
       inkscape:menu-tooltip="In and out glow with a possible offset and colorizable flood"
       inkscape:menu="Shadows and Glows"
       inkscape:label="Cutout Glow"
       style="color-interpolation-filters:sRGB;"
       id="filter4513">
      <feOffset
         dy="3"
         dx="3"
         id="feOffset4503" />
      <feGaussianBlur
         stdDeviation="3"
         result="blur"
         id="feGaussianBlur4505" />
      <feFlood
         flood-color="rgb(0,0,0)"
         flood-opacity="1"
         result="flood"
         id="feFlood4507" />
      <feComposite
         in="flood"
         in2="SourceGraphic"
         operator="in"
         result="composite"
         id="feComposite4509" />
      <feBlend
         in="blur"
         in2="composite"
         mode="normal"
         id="feBlend4511" />
    </filter>
    <filter
       inkscape:menu-tooltip="In and out glow with a possible offset and colorizable flood"
       inkscape:menu="Shadows and Glows"
       inkscape:label="Cutout Glow"
       style="color-interpolation-filters:sRGB;"
       id="filter4667">
      <feOffset
         dy="3"
         dx="3"
         id="feOffset4657" />
      <feGaussianBlur
         stdDeviation="3"
         result="blur"
         id="feGaussianBlur4659" />
      <feFlood
         flood-color="rgb(0,0,0)"
         flood-opacity="1"
         result="flood"
         id="feFlood4661" />
      <feComposite
         in="flood"
         in2="SourceGraphic"
         operator="in"
         result="composite"
         id="feComposite4663" />
      <feBlend
         in="blur"
         in2="composite"
         mode="normal"
         id="feBlend4665" />
    </filter>
    <filter
       inkscape:menu-tooltip="In and out glow with a possible offset and colorizable flood"
       inkscape:menu="Shadows and Glows"
       inkscape:label="Cutout Glow"
       style="color-interpolation-filters:sRGB;"
       id="filter4982">
      <feOffset
         dy="3"
         dx="3"
         id="feOffset4972" />
      <feGaussianBlur
         stdDeviation="3"
         result="blur"
         id="feGaussianBlur4974" />
      <feFlood
         flood-color="rgb(0,0,0)"
         flood-opacity="1"
         result="flood"
         id="feFlood4976" />
      <feComposite
         in="flood"
         in2="SourceGraphic"
         operator="in"
         result="composite"
         id="feComposite4978" />
      <feBlend
         in="blur"
         in2="composite"
         mode="normal"
         id="feBlend4980" />
    </filter>
    <filter
       inkscape:label="Pointillism"
       inkscape:menu="Scatter"
       inkscape:menu-tooltip="Gives a turbulent pointillist HSL sensitive transparency"
       style="color-interpolation-filters:sRGB;"
       id="filter4780"
       height="1.2"
       width="1.2"
       y="-0.1"
       x="-0.1">
      <feTurbulence
         baseFrequency="0.09"
         numOctaves="5"
         type="fractalNoise"
         result="result6"
         id="feTurbulence4764" />
      <feColorMatrix
         values="1 0 0 0 0 0 1 0 0 0 0 0 1 0 0 0 0 0 4.9 -2.9 "
         result="result5"
         in="result6"
         id="feColorMatrix4766" />
      <feComposite
         in2="result5"
         operator="in"
         in="SourceGraphic"
         id="feComposite4768" />
      <feMorphology
         result="result3"
         radius="6"
         operator="dilate"
         id="feMorphology4770" />
      <feTurbulence
         baseFrequency="0.2"
         numOctaves="1"
         type="fractalNoise"
         result="result91"
         id="feTurbulence4772" />
      <feDisplacementMap
         result="result4"
         scale="15"
         yChannelSelector="G"
         xChannelSelector="R"
         in="result3"
         in2="result91"
         id="feDisplacementMap4774" />
      <feComposite
         in2="result4"
         operator="arithmetic"
         result="result2"
         k1="0.5"
         k3="1"
         id="feComposite4776" />
      <feConvolveMatrix
         order="3 3"
         kernelMatrix="1 0 0 0 2 0 0 0 -1 "
         targetX="0"
         targetY="0"
         divisor="1.5"
         edgeMode="duplicate"
         in="result2"
         id="feConvolveMatrix4778"
         result="fbSourceGraphic" />
      <feColorMatrix
         result="fbSourceGraphicAlpha"
         in="fbSourceGraphic"
         values="0 0 0 -1 0 0 0 0 -1 0 0 0 0 -1 0 0 0 0 1 0"
         id="feColorMatrix4782" />
      <feTurbulence
         id="feTurbulence4784"
         seed="50"
         type="fractalNoise"
         baseFrequency="1"
         numOctaves="3"
         result="result1"
         in="fbSourceGraphic" />
      <feColorMatrix
         id="feColorMatrix4786"
         type="luminanceToAlpha"
         in="fbSourceGraphic"
         result="result0" />
      <feColorMatrix
         id="feColorMatrix4788"
         result="result2"
         values="1 0 0 0 0 0 1 0 0 0 0 0 1 0 0 0 0 0 0.5 0 " />
      <feComposite
         in2="result2"
         id="feComposite4790"
         result="result3"
         operator="over"
         in="result1" />
      <feColorMatrix
         id="feColorMatrix4792"
         result="result91"
         values="1 0 0 0 0 0 1 0 0 0 0 0 1 0 0 0 0 0 5 -3.2" />
      <feComposite
         in2="result91"
         id="feComposite4794"
         operator="arithmetic"
         k1="1.5"
         result="result93" />
      <feComposite
         in2="result93"
         id="feComposite4796"
         in="fbSourceGraphic"
         operator="out"
         result="result4" />
      <feComposite
         in2="result4"
         id="feComposite4798"
         operator="arithmetic"
         k2="0.5"
         k1="1"
         result="result94" />
      <feDisplacementMap
         in2="result1"
         id="feDisplacementMap4800"
         scale="15"
         xChannelSelector="R"
         yChannelSelector="A"
         result="result92" />
    </filter>
    <filter
       inkscape:label="Pointillism"
       inkscape:menu="Scatter"
       inkscape:menu-tooltip="Gives a turbulent pointillist HSL sensitive transparency"
       style="color-interpolation-filters:sRGB;"
       id="filter4820"
       height="1.2"
       width="1.2"
       y="-0.1"
       x="-0.1">
      <feTurbulence
         baseFrequency="0.09"
         numOctaves="5"
         type="fractalNoise"
         result="result6"
         id="feTurbulence4804" />
      <feColorMatrix
         values="1 0 0 0 0 0 1 0 0 0 0 0 1 0 0 0 0 0 4.9 -2.9 "
         result="result5"
         in="result6"
         id="feColorMatrix4806" />
      <feComposite
         in2="result5"
         operator="in"
         in="SourceGraphic"
         id="feComposite4808" />
      <feMorphology
         result="result3"
         radius="6"
         operator="dilate"
         id="feMorphology4810" />
      <feTurbulence
         baseFrequency="0.2"
         numOctaves="1"
         type="fractalNoise"
         result="result91"
         id="feTurbulence4812" />
      <feDisplacementMap
         result="result4"
         scale="15"
         yChannelSelector="G"
         xChannelSelector="R"
         in="result3"
         in2="result91"
         id="feDisplacementMap4814" />
      <feComposite
         in2="result4"
         operator="arithmetic"
         result="result2"
         k1="0.5"
         k3="1"
         id="feComposite4816" />
      <feConvolveMatrix
         order="3 3"
         kernelMatrix="1 0 0 0 2 0 0 0 -1 "
         targetX="0"
         targetY="0"
         divisor="1.5"
         edgeMode="duplicate"
         in="result2"
         id="feConvolveMatrix4818"
         result="fbSourceGraphic" />
      <feColorMatrix
         result="fbSourceGraphicAlpha"
         in="fbSourceGraphic"
         values="0 0 0 -1 0 0 0 0 -1 0 0 0 0 -1 0 0 0 0 1 0"
         id="feColorMatrix4822" />
      <feTurbulence
         id="feTurbulence4824"
         seed="50"
         type="fractalNoise"
         baseFrequency="1"
         numOctaves="3"
         result="result1"
         in="fbSourceGraphic" />
      <feColorMatrix
         id="feColorMatrix4826"
         type="luminanceToAlpha"
         in="fbSourceGraphic"
         result="result0" />
      <feColorMatrix
         id="feColorMatrix4828"
         result="result2"
         values="1 0 0 0 0 0 1 0 0 0 0 0 1 0 0 0 0 0 0.5 0 " />
      <feComposite
         in2="result2"
         id="feComposite4830"
         result="result3"
         operator="over"
         in="result1" />
      <feColorMatrix
         id="feColorMatrix4832"
         result="result91"
         values="1 0 0 0 0 0 1 0 0 0 0 0 1 0 0 0 0 0 5 -3.2" />
      <feComposite
         in2="result91"
         id="feComposite4834"
         operator="arithmetic"
         k1="1.5"
         result="result93" />
      <feComposite
         in2="result93"
         id="feComposite4836"
         in="fbSourceGraphic"
         operator="out"
         result="result4" />
      <feComposite
         in2="result4"
         id="feComposite4838"
         operator="arithmetic"
         k2="0.5"
         k1="1"
         result="result94" />
      <feDisplacementMap
         in2="result1"
         id="feDisplacementMap4840"
         scale="15"
         xChannelSelector="R"
         yChannelSelector="A"
         result="result92" />
    </filter>
  </defs>
  <sodipodi:namedview
     id="base"
     pagecolor="#ffffff"
     bordercolor="#666666"
     borderopacity="1.0"
     inkscape:pageopacity="0.0"
     inkscape:pageshadow="2"
     inkscape:zoom="0.7"
     inkscape:cx="351.01428"
     inkscape:cy="438.82928"
     inkscape:document-units="mm"
     inkscape:current-layer="layer1"
     showgrid="false"
     inkscape:window-width="1920"
     inkscape:window-height="986"
     inkscape:window-x="-11"
     inkscape:window-y="-11"
     inkscape:window-maximized="1" />
  <metadata
     id="metadata5">
    <rdf:RDF>
      <cc:Work
         rdf:about="">
        <dc:format>image/svg+xml</dc:format>
        <dc:type
           rdf:resource="http://purl.org/dc/dcmitype/StillImage" />
        <dc:title></dc:title>
      </cc:Work>
    </rdf:RDF>
  </metadata>
  <g
     inkscape:label="Layer 1"
     inkscape:groupmode="layer"
     id="layer1"
     style="display:inline"
     transform="translate(0,-82)">
    <path
       style="fill:#000000;stroke:none;stroke-width:0.26458332px;stroke-linecap:butt;stroke-linejoin:miter;stroke-opacity:1"
       d="m 129.26786,117.83929 c 0.12165,0.28174 -5.44615,2.56034 -13.81211,7.83031 -2.67572,1.68793 -5.9096,3.88055 -8.66704,6.61102 -1.59693,1.59522 -3.20206,3.4689 -4.04221,5.63143 -0.55533,1.42597 -0.78394,3.05573 -0.37347,4.51551 0.35622,1.40598 1.27262,2.71166 2.43976,3.86042 1.3669,1.33043 3.06405,2.38304 4.93537,3.30743 4.413,2.17029 9.4061,3.3595 14.79485,4.02668 2.53113,0.30722 5.11935,0.48182 7.73169,0.48414 2.99549,0.003 5.92983,-0.22127 8.78107,-0.68953 2.48551,-0.40946 4.86472,-0.99682 7.08894,-1.86724 2.00032,-0.78843 3.8381,-1.76218 5.34367,-3.05659 1.36998,-1.17952 2.45565,-2.60941 3.01578,-4.1801 0.65578,-1.75434 0.65946,-3.73864 0.30766,-5.57823 -0.51727,-2.69322 -1.81364,-5.22667 -3.19508,-7.45762 -2.27312,-3.64997 -5.11966,-6.8502 -7.58152,-9.41631 0,0 0,0 0,0 -2.59856,-2.67328 -5.24042,-4.17424 -7.84697,-4.56056 -5.45771,-0.88029 -8.86217,0.76052 -8.9204,0.53924 0.13108,0.49812 2.83016,-2.3207 9.07186,-1.79398 2.94382,0.28414 6.0598,1.77589 8.93459,4.57622 0,0 0,0 0,0 2.61552,2.51105 5.63886,5.70264 8.14738,9.49591 1.53296,2.30577 2.99117,5.04439 3.67541,8.14306 0.47738,2.15763 0.49041,4.56434 -0.29352,6.86806 -0.72058,2.03914 -2.02173,3.84147 -3.67033,5.26889 -1.77838,1.54172 -3.85251,2.68653 -6.04063,3.55221 -2.42924,0.96734 -4.98391,1.62029 -7.60683,2.0585 -3.00225,0.50303 -6.08168,0.74595 -9.21275,0.74475 -2.73086,-0.001 -5.42618,-0.18777 -8.05344,-0.51942 -5.57981,-0.69124 -10.85485,-2.01309 -15.58911,-4.38948 -2.01988,-1.00976 -3.91584,-2.2424 -5.51664,-3.82547 -1.4046,-1.376 -2.50644,-3.08034 -3.00329,-5.01285 -0.493575,-2.07831 -0.181354,-4.17331 0.57918,-5.94104 1.1125,-2.57655 2.93015,-4.62682 4.69286,-6.25126 3.03068,-2.81631 6.43084,-4.9484 9.23722,-6.54074 8.78256,-4.991 14.62096,-6.49611 14.64805,-6.43336 z"
       id="path4604"
       inkscape:connector-curvature="0"
       inkscape:path-effect="#path-effect4606"
       inkscape:original-d="m 129.26786,117.83929 c -91.200955,39.37938 72.37449,58.38937 17.3869,3.40178 -5.88546,-5.88546 -10.69431,-5.16299 -17.3869,-3.40178 z" />
    <path
       style="fill:#000000;stroke:none;stroke-width:0.26458332px;stroke-linecap:butt;stroke-linejoin:miter;stroke-opacity:1"
       d="m 139.09524,146.1875 c 0.32002,-0.0894 5.31425,12.61175 4.63893,32.85196 -0.32101,9.61274 -1.76374,19.61622 -4.18299,31.01456 -0.0818,0.38553 -0.16419,0.77004 -0.24704,1.15346 -2.48068,11.49286 -5.30568,22.07352 -7.42453,31.18969 -4.19347,18.06247 -5.15613,30.43414 -5.63556,30.41235 -0.70804,-0.0322 -0.36687,-12.54909 3.42349,-30.89746 1.90169,-9.21718 4.59662,-19.84817 7.05053,-31.26168 0.0818,-0.38082 0.16324,-0.76261 0.2443,-1.14527 2.40584,-11.35808 3.93075,-21.09029 4.45926,-30.56849 1.09006,-19.53437 -2.8058,-32.61514 -2.32639,-32.74912 z"
       id="path4608"
       inkscape:connector-curvature="0"
       inkscape:path-effect="#path-effect4610"
       inkscape:original-d="m 139.09524,146.1875 c 12.4004,44.37135 -11.0077,86.06513 -12.85119,126.62202" />
    <path
       style="fill:#000000;stroke:none;stroke-width:0.26458332px;stroke-linecap:butt;stroke-linejoin:miter;stroke-opacity:1"
       d="m 134.55952,224.05059 c 0.25654,-0.23219 2.65608,1.79793 5.9031,5.69287 3.49412,4.19136 7.00642,9.33321 11.14211,16.26518 2.5e-4,4.2e-4 0.11159,0.18721 0.11184,0.18763 3.90468,6.54419 7.2143,12.54358 9.69481,16.82783 2.47684,4.27792 4.06284,6.9206 3.76421,7.1396 -0.28718,0.2106 -2.41255,-2.05355 -5.32915,-6.1294 -3.29774,-4.60849 -6.17847,-9.40804 -10.40175,-16.48209 0.0596,0.0996 -0.17118,-0.28618 -0.11159,-0.18655 -4.4432,-7.42822 -6.98402,-11.55144 -10.36063,-16.49528 -2.80032,-4.10007 -4.69713,-6.56259 -4.41295,-6.81979 z"
       id="path4612"
       inkscape:connector-curvature="0"
       inkscape:path-effect="#path-effect4614"
       inkscape:original-d="m 134.55952,224.05059 c 12.42079,13.72339 20.09681,31.76865 30.61607,46.1131" />
    <path
       style="fill:#000000;stroke:none;stroke-width:0.26458332px;stroke-linecap:butt;stroke-linejoin:miter;stroke-opacity:1"
       d="m 150.43452,180.58333 c -0.1554,0.68364 -6.19496,-0.66781 -15.00147,-3.22403 -4.22231,-1.22321 -9.90555,-2.9355 -15.24541,-4.07436 -0.25955,-0.0554 -0.51844,-0.10946 -0.77674,-0.1623 -5.75567,-1.1664 -10.56846,-1.63242 -15.13686,-1.10341 -8.389953,0.95996 -12.846666,5.49744 -13.181782,5.16232 -0.02385,-0.0238 3.084388,-5.76285 12.867402,-7.38729 4.85407,-0.80164 10.08163,-0.47283 15.97963,0.73673 0.26657,0.0542 0.53353,0.10988 0.80091,0.16708 5.61965,1.20212 11.11737,3.01729 15.38172,4.49205 8.62264,2.97612 14.37039,5.13899 14.3126,5.39321 z"
       id="path4616"
       inkscape:connector-curvature="0"
       inkscape:path-effect="#path-effect4618"
       inkscape:original-d="M 150.43452,180.58333 C 132.7396,176.56115 105.88506,162.38874 91.09226,177.18155" />
    <path
       style="fill:#000000;stroke:none;stroke-width:0.26458332px;stroke-linecap:butt;stroke-linejoin:miter;stroke-opacity:1"
       d="m 150.43452,180.58333 c 0.18735,0.30351 -2.22298,2.24333 -6.52744,4.76364 -4.92633,2.88442 -9.84584,5.18186 -17.30365,8.69204 0.001,-6.6e-4 -0.17335,0.0816 -0.17195,0.081 -7.39074,3.49257 -12.0998,5.95686 -16.82311,8.85357 -4.12223,2.52808 -6.54263,4.36096 -6.79885,4.06814 -0.22142,-0.25305 1.77946,-2.59849 5.74892,-5.60386 4.25615,-3.22244 9.57727,-6.33619 16.7443,-9.71077 2.4e-4,-1.1e-4 0.17286,-0.0816 0.1731,-0.0817 6.84451,-3.22694 13.10447,-5.89443 17.56576,-7.95479 4.45329,-2.05665 7.19694,-3.42473 7.39292,-3.10722 z"
       id="path4620"
       inkscape:connector-curvature="0"
       inkscape:path-effect="#path-effect4622"
       inkscape:original-d="m 150.43452,180.58333 c -16.03182,9.89571 -33.60628,14.19196 -47.625,26.45834" />
    <path
       style="fill:#000000;stroke:none;stroke-width:0.26458332px;stroke-linecap:butt;stroke-linejoin:miter;stroke-opacity:1"
       d="m 147.2743,120.62153 c -0.15495,-0.21364 11.20295,-10.18958 28.1708,-21.518363 1.20749,-0.806378 2.47286,-1.631063 3.7847,-2.413238 0.80283,-0.481676 1.67239,-0.983723 2.63362,-1.40192 0.28093,-0.125488 0.61586,-0.252886 1.01039,-0.350838 0,0 0,-2e-6 0,-2e-6 0.19764,-0.08678 0.58443,-0.117056 1.14226,-0.02046 0.55137,0.154343 0.95697,0.556111 1.16786,1.174199 0.0855,0.595212 0.0376,0.995544 -0.0723,1.179979 -0.28347,0.826649 -0.68959,1.458649 -1.04397,1.961585 -3e-5,4.2e-5 -0.0285,0.04276 -0.0286,0.0428 -0.61286,0.916623 -1.26895,1.774583 -1.91173,2.591213 -2.14873,2.73355 -4.44643,5.37302 -6.54378,7.76968 -12.73961,14.56138 -22.52224,24.7638 -22.88123,24.45609 -0.55236,-0.47345 8.47652,-11.35506 20.95711,-26.11131 2.04601,-2.4196 4.31345,-5.07905 6.3891,-7.74179 0.62549,-0.803495 1.24154,-1.609533 1.78997,-2.432724 0.009,-0.01281 0.0171,-0.02562 0.0256,-0.03844 0.33689,-0.537201 0.63697,-0.945207 0.72795,-1.297488 -0.0153,-0.113087 0.0183,-0.03188 0.0283,0.261257 0.15772,0.405419 0.3829,0.640624 0.72274,0.739235 0.22725,0.0099 0.26903,0.04514 0.13488,0.03575 0,0 0,0 0,0 -0.15234,0.03063 -0.343,0.109154 -0.57584,0.203946 -0.77374,0.325673 -1.54821,0.772246 -2.34164,1.233036 -1.25939,0.735955 -2.50064,1.525787 -3.7048,2.304977 -16.98377,10.99304 -29.21747,19.87459 -29.5814,19.37282 z"
       id="path4624"
       inkscape:connector-curvature="0"
       inkscape:path-effect="#path-effect4626"
       inkscape:original-d="m 147.2743,120.62153 c 54.50363,-39.530922 41.22716,-28.294865 5.42808,13.47073" />
    <path
       style="fill:#000000;stroke:none;stroke-width:0.26458332px;stroke-linecap:butt;stroke-linejoin:miter;stroke-opacity:1"
       d="m 184.03906,99.275272 c 0.34797,-0.149414 5.2713,8.755248 8.05399,23.688258 1.36753,7.34093 2.10588,15.22244 2.41773,24.33912 0.008,0.24041 0.0163,0.4812 0.0241,0.72241 0.44524,13.82909 0.18673,26.31161 0.34607,35.32102 0.15917,9.00002 0.52524,14.583 0.15478,14.62417 -0.35494,0.0394 -1.38031,-5.48756 -2.0222,-14.54136 -0.6412,-9.04398 -0.68361,-21.58496 -1.12325,-35.31893 9e-5,0.003 -0.0236,-0.72009 -0.0235,-0.71734 -0.308,-9.09856 -0.89863,-16.74211 -2.03087,-24.04361 -2.26058,-14.58434 -6.24592,-23.880899 -5.79682,-24.073738 z"
       id="path4628"
       inkscape:connector-curvature="0"
       inkscape:path-effect="#path-effect4630"
       inkscape:original-d="m 184.03906,99.275272 c 13.64591,31.779828 7.08775,63.514818 10.99665,98.694968" />
    <path
       style="fill:#000000;stroke:none;stroke-width:0.26458332px;stroke-linecap:butt;stroke-linejoin:miter;stroke-opacity:1"
       d="m 184.03909,99.275272 c -0.14611,0.37887 4.39908,-0.03672 9.83961,4.977178 1.71348,1.58483 3.38564,3.95302 3.96242,6.96134 0.45458,2.50188 0.18392,5.15941 -0.61096,7.85262 -0.80569,2.76779 -2.01693,5.41106 -3.47835,8.16438 -2.7647,5.22502 -6.36829,10.4906 -9.24826,16.36437 -1.07662,2.2051 -2.06589,4.50707 -2.63453,6.87717 -0.0567,0.23647 -0.10919,0.47319 -0.15712,0.7102 -0.46013,2.31275 -0.48896,4.64273 0.20447,6.68563 0.2342,0.77541 0.83145,1.47406 1.54722,1.99075 0.80863,0.5866 1.84001,0.98698 2.91403,1.38358 1.14502,0.41125 2.35849,0.78271 3.56795,1.28113 1.20773,0.55134 2.42983,1.27544 3.47188,2.33686 l 0,0 c 0.0169,0.0232 0.0269,0.0514 0.0381,0.0778 0.0231,0.0544 0.0439,0.10889 0.0642,0.16264 0,0 0,1e-5 0,1e-5 0.0713,0.18863 0.13519,0.37024 0.19603,0.54276 0,0 0,0 0,0 0.0922,0.41359 0.17154,0.81972 0.247,1.21106 0.27029,1.39914 0.51859,2.80144 0.75252,4.13691 0.78581,4.48511 1.49062,8.81693 2.0752,12.53816 0.82794,5.27024 1.45501,9.59938 1.88865,12.98728 0.25046,1.95689 0.42242,3.4882 0.52452,4.68759 0,0 0,0 0,0 0.13308,1.56715 0.14583,2.41957 -0.0102,2.43517 -0.0967,0.01 -0.35562,-0.7967 -0.71671,-2.3183 0,0 0,0 0,0 -0.26367,-1.10583 -0.6235,-2.73164 -1.01862,-4.5974 -0.68053,-3.21336 -1.59514,-7.74667 -2.60252,-12.85159 -1.19156,-6.03825 -1.2558,-6.41158 -2.44737,-12.44983 -0.26317,-1.32519 -0.53922,-2.71718 -0.82985,-4.0845 -0.0825,-0.38773 -0.16417,-0.77049 -0.2536,-1.13962 0,0 0,0 0,0 0.0106,-0.0443 0.0232,-0.0801 0.0335,-0.10609 0,0 0,0 0,0 0.003,-0.007 0.006,-0.0141 0.007,-0.0193 4.8e-4,-0.003 0.002,-0.006 -0.003,-0.005 l 0,0 c -0.56255,-0.54315 -1.40993,-0.88604 -2.3642,-1.21341 -1.06534,-0.42616 -2.24222,-0.76702 -3.47414,-1.19532 -1.14498,-0.38715 -2.38307,-0.8793 -3.54762,-1.67029 -1.12469,-0.76826 -2.05794,-1.896 -2.54748,-3.29176 -0.85542,-2.60365 -0.8668,-5.39431 -0.30865,-8.04635 0.0556,-0.26749 0.1156,-0.53372 0.17992,-0.79874 0.64517,-2.65834 1.7063,-5.13753 2.85043,-7.42118 3.04229,-6.09679 6.71098,-11.31047 9.50501,-16.33691 1.47599,-2.66383 2.68848,-5.11769 3.50484,-7.65995 0.78034,-2.46358 1.13266,-4.76898 0.81126,-6.90777 -0.34832,-2.52326 -1.71528,-4.68448 -3.15037,-6.20029 -4.51089,-4.77617 -8.88294,-5.78969 -8.78222,-6.050858 z"
       id="path4632"
       inkscape:connector-curvature="0"
       inkscape:path-effect="#path-effect4634"
       inkscape:original-d="m 184.03909,99.275272 c 33.82359,13.043968 -9.59583,40.319408 -3.36647,59.007468 1.54383,4.6315 8.62554,4.08982 11.71726,7.18155 0.34513,0.34513 6.54216,35.56148 6.80357,38.17559" />
    <path
       style="fill:#000000;stroke:none;stroke-width:0.26458332px;stroke-linecap:butt;stroke-linejoin:miter;stroke-opacity:1"
       d="m 184.01607,94.916709 c 0.0946,-0.110344 3.69226,1.841372 7.15484,7.812481 1.69161,2.91586 3.16614,6.44435 4.33654,10.8057 2.10135,7.82892 2.87466,16.26397 2.94633,26.54141 0.007,0.95426 0.008,1.91424 0.003,2.88081 -0.0499,9.02631 -0.65943,18.54622 -1.11657,25.7043 -0.97123,15.27945 -1.06007,25.50196 -1.54826,25.52908 -0.80868,0.0449 -1.26099,-10.30441 -0.7394,-25.64068 0.22882,-6.78077 0.71239,-17.07822 0.75886,-25.60723 0.005,-0.95676 0.006,-1.90615 9.4e-4,-2.84952 -0.0584,-10.23962 -0.62228,-18.31886 -2.40908,-26.03153 -0.98826,-4.2657 -2.20839,-7.67132 -3.64387,-10.57336 -2.84987,-5.759703 -5.93903,-8.34275 -5.74304,-8.571461 z"
       id="path4636"
       inkscape:connector-curvature="0"
       inkscape:path-effect="#path-effect4638"
       inkscape:original-d="m 184.01607,94.916709 c 20.93624,17.940681 10.11683,69.415981 11.77559,99.273771" />
    <path
       inkscape:connector-curvature="0"
       id="path4662"
       d="m 97.508358,209.86266 c -2.212558,-9.50438 13.762442,9.25185 12.367802,-4.67881 -0.88273,-8.81732 -12.782214,2.62649 -7.66438,2.75228 5.19289,0.12764 7.08046,-8.231 1.36161,-8.87023 -4.057125,-0.45348 -8.785066,3.18343 -6.144028,7.36404 4.933838,7.80996 12.738718,-9.6133 1.781208,-6.00094 -10.100786,3.32993 11.03598,14.57187 8.90973,3.07798 -2.0613,-11.14272 -17.827541,9.33597 -3.37981,4.57299 4.78498,-1.57746 -4.963054,-3.62447 -7.691218,-2.80297"
       style="fill:none;stroke:#000000;stroke-width:0.20610212px;stroke-linecap:butt;stroke-linejoin:miter;stroke-opacity:1"
       inkscape:spray-origin="#path4660" />
    <path
       inkscape:connector-curvature="0"
       id="path4664"
       d="m 54.411362,221.71073 c -1.569226,-11.41427 15.175507,12.3715 15.048495,-4.15781 -0.08038,-10.46212 -15.312862,1.69996 -9.309639,2.40356 6.091276,0.71392 9.21805,-8.90814 2.56397,-10.28063 -4.720608,-0.97368 -10.674015,2.78875 -8.022965,7.99055 4.95254,9.71768 16.020379,-9.91887 2.745708,-6.86172 -12.23677,2.81812 11.392434,18.33004 10.140696,4.58614 -1.213494,-13.32401 -21.973048,9.04026 -4.470094,5.00934 5.796859,-1.33502 -5.441351,-4.80009 -8.73798,-4.13051"
       style="fill:none;stroke:#000000;stroke-width:0.24333957px;stroke-linecap:butt;stroke-linejoin:miter;stroke-opacity:1"
       inkscape:spray-origin="#path4660" />
    <path
       inkscape:connector-curvature="0"
       id="path4666"
       d="m 67.673552,213.99075 c 6.359433,-3.46212 -3.894477,11.67204 5.79218,7.91941 6.131104,-2.37519 -4.406432,-8.6217 -3.484172,-4.93681 0.935787,3.73894 7.286781,3.43563 6.612835,-0.78062 -0.478122,-2.99114 -4.014159,-5.653 -6.481561,-2.93741 -4.609458,5.0731 9.394426,7.20872 4.643848,0.0869 -4.379149,-6.56496 -8.238315,10.77443 -0.439021,6.98054 7.56102,-3.67797 -10.202582,-10.90283 -3.938837,-1.51261 2.074517,3.10999 1.610433,-4.26617 0.483356,-6.05473"
       style="fill:none;stroke:#000000;stroke-width:0.15292658px;stroke-linecap:butt;stroke-linejoin:miter;stroke-opacity:1"
       inkscape:spray-origin="#path4660" />
    <path
       inkscape:connector-curvature="0"
       id="path4668"
       d="m 60.70368,226.99923 c 13.179437,-9.40786 -5.483923,26.96524 15.002829,16.01131 12.966953,-6.9332 -12.116854,-17.94561 -9.071528,-10.01542 3.089999,8.04651 17.106253,5.65308 14.46822,-3.52393 -1.871503,-6.51045 -10.442,-11.46172 -15.183813,-4.76519 -8.858385,12.51009 22.80687,13.45803 10.332296,-1.06475 -11.499231,-13.3873 -15.36982,26.14916 0.916073,15.61483 15.788331,-10.21248 -25.601397,-21.4396 -9.153388,-2.29098 5.447467,6.34188 2.419479,-9.90654 -0.566911,-13.57166"
       style="fill:none;stroke:#000000;stroke-width:0.34199479px;stroke-linecap:butt;stroke-linejoin:miter;stroke-opacity:1"
       inkscape:spray-origin="#path4660" />
    <path
       inkscape:connector-curvature="0"
       id="path4670"
       d="m 56.563925,210.32301 c 1.374922,-15.83966 16.642803,21.28404 21.520989,-0.99844 3.087634,-14.10354 -21.125966,-2.38987 -13.262286,0.39074 7.979028,2.82139 15.125947,-9.172 6.590727,-13.05156 -6.055155,-2.75227 -15.216008,0.49233 -13.23742,8.30224 3.696286,14.59002 24.588652,-8.45428 5.79094,-8.39517 -17.327995,0.0545 9.731749,28.14692 12.245541,9.26924 2.436999,-18.30095 -32.330845,5.4536 -7.545631,5.37567 8.208692,-0.0258 -5.856232,-8.12168 -10.49707,-8.22762"
       style="fill:none;stroke:#000000;stroke-width:0.33579507px;stroke-linecap:butt;stroke-linejoin:miter;stroke-opacity:1"
       inkscape:spray-origin="#path4660" />
    <path
       inkscape:connector-curvature="0"
       id="path4672"
       d="m 91.833685,201.43797 c 8.119829,8.58474 -20.040548,-1.26436 -10.07159,12.4476 6.309774,8.67891 11.758704,-10.55515 6.331339,-7.55995 -5.506969,3.03915 -2.373666,12.93102 3.995724,10.10539 4.518644,-2.00458 7.239573,-8.69537 1.92433,-11.45251 -9.929637,-5.15073 -7.444666,17.83305 1.804067,7.36199 8.525605,-9.65236 -20.440381,-8.49198 -11.195293,2.22545 8.96263,10.39 12.934282,-20.65211 0.739616,-6.84579 -4.038785,4.57256 7.403053,0.75711 9.753363,-1.76851"
       style="fill:none;stroke:#000000;stroke-width:0.24956699px;stroke-linecap:butt;stroke-linejoin:miter;stroke-opacity:1"
       inkscape:spray-origin="#path4660" />
    <path
       inkscape:connector-curvature="0"
       id="path4674"
       d="m 91.97028,210.90197 c -7.582747,7.1905 1.09547,-17.72433 -11.019461,-8.89275 -7.668066,5.58989 9.347784,10.38689 6.692818,5.59058 -2.693906,-4.86666 -11.438259,-2.08453 -8.932201,3.54506 1.777872,3.9938 7.697964,6.39249 10.130235,1.68883 4.54383,-8.78712 -15.779114,-6.56353 -6.508555,1.60376 8.545741,7.52872 7.486778,-18.0861 -1.980748,-9.89807 -9.178275,7.93788 18.27838,11.4151 6.054926,0.64634 -4.048327,-3.56654 -0.661171,6.54776 1.575023,8.62341"
       style="fill:none;stroke:#000000;stroke-width:0.22070529px;stroke-linecap:butt;stroke-linejoin:miter;stroke-opacity:1"
       inkscape:spray-origin="#path4660" />
    <path
       inkscape:connector-curvature="0"
       id="path4676"
       d="m 101.74818,227.16939 c 5.94708,7.926 -16.576268,-2.96284 -9.577107,9.41109 4.430063,7.832 10.802417,-7.67366 5.995242,-5.69532 -4.877688,2.00736 -3.209666,10.5473 2.366205,8.79999 3.95569,-1.23959 6.86012,-6.55476 2.69443,-9.35829 -7.782107,-5.23741 -7.90161,14.14824 0.80161,6.30551 8.02276,-7.22954 -16.220757,-9.0226 -9.539373,0.78747 6.477263,9.51034 12.743873,-15.97392 1.268466,-5.63309 -3.800572,3.42481 6.095707,1.33613 8.294497,-0.54415"
       style="fill:none;stroke:#000000;stroke-width:0.20928144px;stroke-linecap:butt;stroke-linejoin:miter;stroke-opacity:1"
       inkscape:spray-origin="#path4660" />
    <path
       inkscape:connector-curvature="0"
       id="path4678"
       d="m 82.804861,221.47059 c 0.377902,11.80854 -14.151334,-14.24194 -15.792037,2.62857 -1.038472,10.67807 15.798417,-0.0937 9.751563,-1.45417 -6.13554,-1.38042 -10.35477,8.09747 -3.7158,10.20979 4.709887,1.49854 11.184233,-1.70088 9.037734,-7.28968 -4.009968,-10.44068 -17.400163,8.39972 -3.53499,6.70365 12.781103,-1.56346 -9.655146,-19.91341 -9.850515,-5.76306 -0.189412,13.71804 23.376713,-6.86619 5.095164,-4.62989 -6.054714,0.74065 5.035131,5.47797 8.4688,5.14818"
       style="fill:none;stroke:#000000;stroke-width:0.24952702px;stroke-linecap:butt;stroke-linejoin:miter;stroke-opacity:1"
       inkscape:spray-origin="#path4660" />
    <path
       inkscape:connector-curvature="0"
       id="path4680"
       d="m 116.12073,222.41501 c -10.00398,14.89078 -4.81625,-30.10219 -21.796511,-10.76156 -10.747549,12.24151 19.556881,13.89181 13.309501,6.85353 -6.33902,-7.14151 -19.943184,0.80046 -13.632536,9.29049 4.476954,6.02309 15.294206,7.81968 17.603526,-0.97246 4.31414,-16.42499 -28.89561,-5.07361 -10.30103,5.12898 17.14075,9.4049 5.75445,-33.10665 -7.032475,-15.83754 -12.39627,16.74151 34.902905,12.26288 10.385515,-1.18948 -8.119991,-4.45533 1.34959,11.21667 5.87448,13.85454"
       style="fill:none;stroke:#000000;stroke-width:0.37888011px;stroke-linecap:butt;stroke-linejoin:miter;stroke-opacity:1"
       inkscape:spray-origin="#path4660" />
    <path
       inkscape:connector-curvature="0"
       id="path4682"
       d="m 68.543901,232.36784 c 7.348836,7.08519 -17.344679,-0.29346 -8.196032,11.14275 5.790564,7.23849 9.727279,-9.57678 5.162849,-6.77599 -4.631377,2.84187 -1.533732,11.25354 3.850388,8.5616 3.819659,-1.90974 5.901436,-7.79197 1.204812,-9.95975 -8.773966,-4.04971 -5.714731,15.68566 1.849869,6.28136 6.973154,-8.66902 -17.977391,-6.51476 -9.572607,2.36608 8.148,8.60951 10.339896,-18.33692 0.365797,-5.93714 -3.303353,4.10673 6.418734,0.35871 8.346452,-1.91436"
       style="fill:none;stroke:#000000;stroke-width:0.21559732px;stroke-linecap:butt;stroke-linejoin:miter;stroke-opacity:1"
       inkscape:spray-origin="#path4660" />
    <path
       inkscape:connector-curvature="0"
       id="path4684"
       d="m 70.021686,189.20583 c 8.675424,14.49394 -27.577712,-7.96665 -17.908368,14.25521 6.12014,14.06518 19.677271,-11.09195 11.175775,-8.59141 -8.62618,2.5372 -7.314586,17.3122 2.449131,15.33987 6.92669,-1.39923 12.794719,-9.89497 6.229927,-15.38783 -12.263973,-10.26147 -15.908837,22.58421 0.239428,10.83285 14.885701,-10.83256 -25.898948,-18.17739 -16.31311,-0.35879 9.292975,17.27422 24.442705,-24.81966 3.150836,-9.32523 -7.051713,5.13165 10.097553,3.3477 14.159312,0.55027"
       style="fill:none;stroke:#000000;stroke-width:0.35676149px;stroke-linecap:butt;stroke-linejoin:miter;stroke-opacity:1"
       inkscape:spray-origin="#path4660" />
    <path
       inkscape:connector-curvature="0"
       id="path4686"
       d="m 97.52053,176.57865 c 8.20562,-11.6923 3.34605,24.04241 17.17765,8.92072 8.75463,-9.57116 -15.343924,-11.37639 -10.48453,-5.67192 4.93066,5.78814 15.88971,-0.31384 11.0035,-7.17507 -3.46643,-4.86757 -12.04889,-6.47325 -14.02991,0.48871 -3.70084,13.00594 22.92148,4.50768 8.28381,-3.91613 -13.493212,-7.76519 -5.11799,26.26284 5.34171,12.72228 10.14014,-13.12686 -27.587288,-10.32846 -8.28719,0.77853 6.39207,3.67856 -0.8925,-8.95146 -4.45199,-11.12484"
       style="fill:none;stroke:#000000;stroke-width:0.30168843px;stroke-linecap:butt;stroke-linejoin:miter;stroke-opacity:1"
       inkscape:spray-origin="#path4660" />
    <path
       inkscape:connector-curvature="0"
       id="path4688"
       d="m 72.539094,182.72221 c 11.400609,-6.52112 -6.617194,21.31562 10.806176,14.1407 11.028006,-4.5413 -8.319945,-15.46715 -6.506844,-8.81986 1.839688,6.74477 13.345528,5.95241 11.962455,-1.66797 -0.981189,-5.40613 -7.495291,-10.09844 -11.866257,-5.07963 -8.165593,9.37585 17.311667,12.71443 8.424846,-0.0195 -8.191995,-11.73833 -14.52892,19.85356 -0.52981,12.67584 13.571416,-6.95843 -18.918187,-19.3828 -7.200713,-2.59279 3.880753,5.56073 2.757709,-7.79807 0.645528,-10.99859"
       style="fill:none;stroke:#000000;stroke-width:0.27739066px;stroke-linecap:butt;stroke-linejoin:miter;stroke-opacity:1"
       inkscape:spray-origin="#path4660" />
    <path
       inkscape:connector-curvature="0"
       id="path4690"
       d="m 60.288849,175.72667 c 9.856984,2.01332 -14.586354,8.91757 -0.933582,13.60041 8.641428,2.96398 3.034801,-13.10631 0.716469,-8.36495 -2.352336,4.8109 4.668192,10.17345 7.726028,5.08969 2.169326,-3.60657 0.794336,-9.60042 -4.258462,-8.92324 -9.439352,1.26506 3.530581,16.0696 4.857068,4.24916 1.222777,-10.89623 -18.398978,4.07548 -6.714919,7.02507 11.327092,2.85949 -1.082732,-20.71862 -2.831738,-5.13311 -0.579257,5.16182 5.53007,-3.09203 5.933323,-6.00155"
       style="fill:none;stroke:#000000;stroke-width:0.21248004px;stroke-linecap:butt;stroke-linejoin:miter;stroke-opacity:1"
       inkscape:spray-origin="#path4660" />
    <path
       inkscape:connector-curvature="0"
       id="path4692"
       d="m 87.345227,169.0927 c -8.15721,5.90205 3.302428,-16.78817 -9.392137,-9.89573 -8.034947,4.36251 7.605406,11.10992 5.680325,6.19124 -1.953311,-4.99082 -10.658763,-3.44686 -8.981964,2.24869 1.189572,4.04059 6.538213,7.08505 9.459902,2.90243 5.458133,-7.81373 -14.234336,-8.27708 -6.420141,0.70317 7.203243,8.27813 9.452499,-16.3201 -0.631749,-9.70528 -9.776149,6.41273 16.003685,13.22872 5.700484,1.38804 -3.412355,-3.92155 -1.464944,6.16928 0.406512,8.43628"
       style="fill:none;stroke:#000000;stroke-width:0.21264857px;stroke-linecap:butt;stroke-linejoin:miter;stroke-opacity:1"
       inkscape:spray-origin="#path4660" />
    <path
       inkscape:connector-curvature="0"
       id="path4694"
       d="m 96.635626,152.04376 c 5.338174,6.535 -14.207678,-1.9391 -7.818245,8.34343 4.04414,6.50826 8.921759,-6.90817 4.901073,-5.0562 -4.079656,1.87913 -2.360712,9.08667 2.322109,7.4043 3.32214,-1.19352 5.606777,-5.81779 1.964065,-8.05694 -6.805111,-4.18304 -6.226407,12.31517 0.903349,5.33683 6.572313,-6.43274 -14.117874,-7.10745 -8.088803,1.00481 5.844871,7.86441 10.282306,-14.03846 0.881553,-4.83736 -3.113462,3.04735 5.233337,0.92289 7.038156,-0.75409"
       style="fill:none;stroke:#000000;stroke-width:0.17821559px;stroke-linecap:butt;stroke-linejoin:miter;stroke-opacity:1"
       inkscape:spray-origin="#path4660" />
    <path
       inkscape:connector-curvature="0"
       id="path4696"
       d="m 79.363198,199.35165 c -7.596214,15.85375 -8.925145,-28.50963 -22.657371,-7.35477 -8.691735,13.38983 20.928028,10.70677 13.875057,4.76472 -7.156413,-6.02921 -19.225946,3.59508 -11.906442,10.93596 5.192686,5.20785 15.936215,5.42106 16.932862,-3.43117 1.86188,-16.53725 -28.737478,-0.83569 -9.264052,6.42962 17.950881,6.69726 0.900698,-32.9172 -9.058013,-14.36381 -9.654462,17.98655 35.578977,6.95809 9.902815,-2.6214 -8.503772,-3.17265 2.894119,10.68616 7.654802,12.60456"
       style="fill:none;stroke:#000000;stroke-width:0.37128609px;stroke-linecap:butt;stroke-linejoin:miter;stroke-opacity:1"
       inkscape:spray-origin="#path4660" />
    <path
       inkscape:connector-curvature="0"
       id="path4698"
       d="m 58.037489,182.73432 c 15.5874,3.98557 -23.995184,13.10512 -2.553199,21.65112 13.571554,5.40914 5.870903,-20.6978 1.797593,-13.30543 -4.133055,7.50079 6.662135,16.61462 11.943396,8.73307 3.746692,-5.59141 2.018443,-15.27277 -6.105294,-14.58566 -15.176306,1.28362 4.384626,25.94374 7.426426,7.16648 2.803975,-17.30915 -29.707013,5.07309 -11.274325,10.69685 17.869538,5.45193 -0.111648,-33.17852 -4.122333,-8.42026 -1.32831,8.19975 9.074648,-4.50711 9.945955,-9.12302"
       style="fill:none;stroke:#000000;stroke-width:0.33980072px;stroke-linecap:butt;stroke-linejoin:miter;stroke-opacity:1"
       inkscape:spray-origin="#path4660" />
    <path
       inkscape:connector-curvature="0"
       id="path4700"
       d="m 51.269877,188.56776 c -3.876984,13.02775 -10.274456,-20.68735 -18.193768,-2.86712 -5.012493,11.2792 17.279928,5.63657 11.173242,1.9549 -6.196246,-3.73566 -14.244932,5.07796 -7.764994,9.79545 4.597059,3.34673 12.826801,2.20601 12.513794,-4.67458 -0.584743,-12.85392 -22.045631,2.84864 -6.294011,6.03375 14.520073,2.93609 -3.306119,-25.24519 -8.659573,-9.86933 -5.189902,14.90611 28.012708,0.99641 7.243825,-3.20324 -6.878505,-1.3909 3.506553,7.80891 7.374625,8.69619"
       style="fill:none;stroke:#000000;stroke-width:0.28707454px;stroke-linecap:butt;stroke-linejoin:miter;stroke-opacity:1"
       inkscape:spray-origin="#path4660" />
    <path
       inkscape:connector-curvature="0"
       id="path4702"
       d="m 83.678378,193.79691 c -2.915912,14.46316 -13.132299,-21.35826 -19.949032,-1.31848 -4.314611,12.68404 19.232229,4.40184 12.270199,1.01957 -7.064135,-3.43187 -14.902392,6.88398 -7.435459,11.34949 5.297267,3.16797 14.082357,1.12917 13.070433,-6.27844 -1.89042,-13.83847 -23.553568,5.23759 -6.213481,7.13891 15.984327,1.75268 -6.045367,-26.96766 -10.32756,-9.82153 -4.151361,16.62228 30.38067,-1.66503 7.517372,-4.17198 -7.572167,-0.83028 4.555179,8.09856 8.823614,8.67911"
       style="fill:none;stroke:#000000;stroke-width:0.31161153px;stroke-linecap:butt;stroke-linejoin:miter;stroke-opacity:1"
       inkscape:spray-origin="#path4660" />
    <path
       inkscape:connector-curvature="0"
       id="path4704"
       d="m 40.323989,195.09203 c 7.453908,12.58984 -23.853063,-7.01483 -15.57039,12.27261 5.242455,12.20785 17.089363,-9.52544 9.715487,-7.39494 -7.482031,2.16174 -6.407394,14.9644 2.057549,13.29667 6.005296,-1.18315 11.123139,-8.51727 5.459931,-13.30215 -10.579683,-8.93883 -13.873127,19.495 0.162362,9.38378 12.93812,-9.32067 -22.356593,-15.8518 -14.127947,-0.37856 7.97724,15.00052 21.27394,-21.39574 2.767813,-8.06386 -6.129099,4.41543 8.73199,2.94153 12.261664,0.53544"
       style="fill:none;stroke:#000000;stroke-width:0.30900905px;stroke-linecap:butt;stroke-linejoin:miter;stroke-opacity:1"
       inkscape:spray-origin="#path4660" />
    <path
       inkscape:connector-curvature="0"
       id="path4706"
       d="m 52.559163,204.81737 c 4.715389,12.24605 -20.050361,-9.76033 -15.600539,8.53279 2.816481,11.5785 16.534379,-5.87666 9.695116,-5.09177 -6.939572,0.79639 -7.897895,12.27958 -0.162659,12.06663 5.487625,-0.15107 11.107402,-5.87452 6.812108,-10.9507 -8.024225,-9.48303 -15.176228,15.17348 -1.255432,8.32344 12.832393,-6.31447 -17.409343,-17.35284 -12.438643,-2.44114 4.818829,14.45612 22.005059,-15.75116 3.650164,-6.71922 -6.079019,2.99133 7.284213,3.90342 10.764666,2.30166"
       style="fill:none;stroke:#000000;stroke-width:0.27715066px;stroke-linecap:butt;stroke-linejoin:miter;stroke-opacity:1"
       inkscape:spray-origin="#path4660" />
    <path
       inkscape:connector-curvature="0"
       id="path4708"
       d="m 42.533436,211.5409 c 0.620814,-9.57109 10.317428,12.61756 12.966318,-0.88533 1.676595,-8.54656 -12.772659,-1.16338 -7.993431,0.41016 4.849322,1.59661 9.001869,-5.73071 3.803173,-7.95819 -3.688108,-1.58025 -9.17039,0.49713 -7.874332,5.1813 2.421224,8.7507 14.718336,-5.42235 3.38209,-5.13937 -10.449906,0.26085 6.239636,16.84754 7.507331,5.42921 1.228969,-11.06948 -19.427188,3.7145 -4.480087,3.34138 4.950379,-0.12357 -3.6388,-4.82118 -6.439109,-4.82401"
       style="fill:none;stroke:#000000;stroke-width:0.2025684px;stroke-linecap:butt;stroke-linejoin:miter;stroke-opacity:1"
       inkscape:spray-origin="#path4660" />
    <path
       inkscape:connector-curvature="0"
       id="path4710"
       d="m 81.213019,224.11683 c 6.627604,3.61631 -12.429007,3.1832 -3.666598,9.551 5.546106,4.03045 5.065102,-8.73353 2.357206,-5.84301 -2.747612,2.93292 1.107157,8.32691 4.42101,5.3537 2.350952,-2.10929 2.685304,-6.71215 -1.088709,-7.33974 -7.050395,-1.17243 -1.008166,12.30603 2.548077,4.11853 3.278192,-7.54734 -14.097162,-1.13055 -6.365153,3.56003 7.495783,4.54728 3.788628,-15.10177 -0.90036,-4.30638 -1.552959,3.57537 4.648513,-0.99962 5.578916,-2.998"
       style="fill:none;stroke:#000000;stroke-width:0.15945828px;stroke-linecap:butt;stroke-linejoin:miter;stroke-opacity:1"
       inkscape:spray-origin="#path4660" />
    <path
       inkscape:connector-curvature="0"
       id="path4712"
       d="m 83.459379,236.44875 c 4.992527,10.69833 -18.601691,-7.51521 -13.472055,8.62701 3.246764,10.2171 14.475117,-6.30105 8.38545,-5.17195 -6.178984,1.14566 -6.326113,11.5116 0.60323,10.84018 4.915888,-0.47632 9.604403,-5.96217 5.434096,-10.25147 -7.790731,-8.01302 -12.678907,14.56085 -0.609973,7.54843 11.125305,-6.46414 -16.702733,-14.49364 -11.315555,-1.41867 5.222594,12.67552 18.772077,-15.50332 2.858918,-6.25729 -5.270328,3.06222 6.780114,3.05113 9.80445,1.39741"
       style="fill:none;stroke:#000000;stroke-width:0.24934375px;stroke-linecap:butt;stroke-linejoin:miter;stroke-opacity:1"
       inkscape:spray-origin="#path4660" />
    <path
       inkscape:connector-curvature="0"
       id="path4714"
       d="m 71.218573,194.69051 c 12.315628,-1.20563 -13.913291,15.76783 3.831371,16.32441 11.23136,0.35229 -1.182512,-16.5051 -2.189267,-10.0919 -1.021517,6.50726 9.173851,10.26627 10.925737,3.18261 1.242844,-5.02537 -2.545464,-11.57231 -8.239176,-8.94524 -10.63667,4.90774 9.973415,17.60893 7.248929,3.23435 -2.511473,-13.2507 -20.149441,11.45804 -5.34695,10.69079 14.350252,-0.74381 -8.780968,-23.96053 -5.18867,-5.00731 1.189751,6.27718 5.379577,-5.63847 4.799169,-9.2045"
       style="fill:none;stroke:#000000;stroke-width:0.2613523px;stroke-linecap:butt;stroke-linejoin:miter;stroke-opacity:1"
       inkscape:spray-origin="#path4660" />
    <path
       inkscape:connector-curvature="0"
       id="path4716"
       d="m 75.738854,236.62739 c 17.882428,-2.57085 -19.251888,23.91476 6.664869,23.55588 16.40384,-0.22714 -2.813512,-23.99416 -3.858745,-14.5743 -1.060566,9.55803 14.05705,14.36783 16.14481,3.92096 1.481124,-7.41133 -4.475918,-16.70992 -12.606711,-12.5028 -15.189489,7.85949 15.707599,25.02412 10.78571,4.23897 -4.537064,-19.16005 -28.631447,18.04047 -7.093077,15.94494 20.88033,-2.03152 -14.387472,-34.36641 -7.897852,-6.96072 2.149321,9.07658 7.473967,-8.57843 6.39221,-13.74107"
       style="fill:none;stroke:#000000;stroke-width:0.38156405px;stroke-linecap:butt;stroke-linejoin:miter;stroke-opacity:1"
       inkscape:spray-origin="#path4660" />
    <path
       inkscape:connector-curvature="0"
       id="path4718"
       d="m 93.396221,247.69505 c 0.902459,14.69068 -18.142703,-17.21708 -19.568754,3.85079 -0.90262,13.33476 19.669408,-0.69449 12.089857,-2.16744 -7.690713,-1.49457 -12.598026,10.46201 -4.253655,12.84954 5.91975,1.6938 13.864857,-2.52704 10.987547,-9.40795 -5.375229,-12.85451 -21.360195,11.09607 -4.156744,8.47696 15.858378,-2.41434 -12.751283,-24.44389 -12.477045,-6.81614 0.26586,17.0892 28.858533,-9.40504 6.175385,-5.95168 -7.512495,1.14373 6.470294,6.63725 10.733984,6.10099"
       style="fill:none;stroke:#000000;stroke-width:0.31085533px;stroke-linecap:butt;stroke-linejoin:miter;stroke-opacity:1"
       inkscape:spray-origin="#path4660" />
    <path
       inkscape:connector-curvature="0"
       id="path4720"
       d="m 87.663575,243.37396 c 11.062687,0.93978 -14.841404,11.64908 0.724841,15.02695 9.852546,2.138 1.641743,-14.75545 -0.289878,-9.26063 -1.959954,5.57542 6.424274,10.55076 9.122432,4.58558 1.914158,-4.23188 -0.363328,-10.62479 -5.814491,-9.2331 -10.183552,2.59986 5.935231,17.15954 5.869829,4.03307 -0.06029,-12.10017 -19.642664,6.83187 -6.45704,8.56303 12.782782,1.67827 -3.849782,-22.56982 -3.763551,-5.26226 0.02856,5.73214 5.663895,-4.09987 5.731916,-7.34073"
       style="fill:none;stroke:#000000;stroke-width:0.23448806px;stroke-linecap:butt;stroke-linejoin:miter;stroke-opacity:1"
       inkscape:spray-origin="#path4660" />
    <path
       inkscape:connector-curvature="0"
       id="path4722"
       d="m 70.901341,217.4795 c 11.176694,13.80415 -29.887963,-4.21114 -16.532648,17.49073 8.453148,13.73606 18.842341,-14.4596 10.362343,-10.59806 -8.604374,3.91817 -5.051904,19.10494 4.820278,15.60643 7.003632,-2.48195 11.854718,-12.19472 4.207611,-16.94109 -14.285894,-8.8669 -13.218209,25.86533 1.852796,11.24168 13.892666,-13.48029 -29.651817,-15.08913 -17.035232,2.04126 12.231127,16.60704 21.771148,-29.45569 1.899679,-10.17407 -6.581291,6.38595 11.007202,1.99029 14.821443,-1.52311"
       style="fill:none;stroke:#000000;stroke-width:0.37512833px;stroke-linecap:butt;stroke-linejoin:miter;stroke-opacity:1"
       inkscape:spray-origin="#path4660" />
    <path
       inkscape:connector-curvature="0"
       id="path4724"
       d="m 61.865948,242.8681 c 0.78962,8.27547 -10.569686,-9.37277 -10.972838,2.54695 -0.255184,7.5445 11.089857,-0.76719 6.783217,-1.45409 -4.369811,-0.69697 -6.911871,6.14595 -2.156054,7.33453 3.373922,0.84321 7.778321,-1.69093 6.022879,-5.52023 -3.279417,-7.15367 -11.845892,6.67098 -2.184742,4.86441 8.905785,-1.66533 -7.664144,-13.55503 -7.173124,-3.60964 0.476016,9.64154 16.110855,-5.85944 3.372403,-3.47742 -4.218883,0.7889 3.778982,3.62322 6.175549,3.23919"
       style="fill:none;stroke:#000000;stroke-width:0.17557362px;stroke-linecap:butt;stroke-linejoin:miter;stroke-opacity:1"
       inkscape:spray-origin="#path4660" />
    <path
       inkscape:connector-curvature="0"
       id="path4726"
       d="m 78.016189,241.18542 c 6.581405,0.0393 -8.227243,7.5764 1.129296,8.84646 5.922161,0.80389 0.281917,-8.79641 -0.603277,-5.45911 -0.898177,3.38626 4.288622,5.93538 5.604863,2.28436 0.933785,-2.59014 -0.710316,-6.26184 -3.866801,-5.18514 -5.896764,2.01143 4.307891,9.86369 3.656942,2.10956 -0.600053,-7.14786 -11.289286,4.95359 -3.4164,5.36157 7.632357,0.39553 -3.327847,-13.1582 -2.469558,-2.93421 0.28426,3.38612 3.155873,-2.68704 3.044898,-4.60541"
       style="fill:none;stroke:#000000;stroke-width:0.13900331px;stroke-linecap:butt;stroke-linejoin:miter;stroke-opacity:1"
       inkscape:spray-origin="#path4660" />
    <path
       inkscape:connector-curvature="0"
       id="path4728"
       d="m 70.16951,241.76468 c 11.766351,0.0586 -14.695209,13.55982 2.034739,15.81376 10.589108,1.42664 0.488326,-15.72679 -1.088277,-9.75875 -1.599728,6.05557 7.677808,10.60366 10.024481,4.07399 1.66481,-4.63234 -1.281072,-11.1937 -6.922335,-9.26314 -10.538687,3.60657 7.719261,17.6267 6.541666,3.76498 -1.085525,-12.77793 -20.174226,8.87619 -6.098303,9.59155 13.645883,0.69351 -5.973009,-23.5184 -4.420322,-5.2414 0.514239,6.05322 5.6373,-4.80954 5.435474,-8.23904"
       style="fill:none;stroke:#000000;stroke-width:0.24851112px;stroke-linecap:butt;stroke-linejoin:miter;stroke-opacity:1"
       inkscape:spray-origin="#path4660" />
    <ellipse
       style="opacity:0.872;vector-effect:none;fill:#dc0781;fill-opacity:0.43589747;stroke:none;stroke-width:0.40099999;stroke-linecap:butt;stroke-linejoin:bevel;stroke-miterlimit:3.9000001;stroke-dasharray:none;stroke-dashoffset:523.53900146;stroke-opacity:1;paint-order:markers fill stroke;filter:url(#filter4780)"
       id="path4739"
       cx="73.327377"
       cy="216.68005"
       rx="58.586308"
       ry="68.602676" />
    <ellipse
       style="opacity:0.808;vector-effect:none;fill:#dc0781;fill-opacity:0.43589747;stroke:none;stroke-width:0.40099999;stroke-linecap:butt;stroke-linejoin:bevel;stroke-miterlimit:3.9000001;stroke-dasharray:none;stroke-dashoffset:523.53900146;stroke-opacity:1;paint-order:markers fill stroke;filter:url(#filter4820)"
       id="path4802"
       cx="185.96428"
       cy="150.9122"
       rx="19.276785"
       ry="56.885414" />
  </g>
  <g
     inkscape:groupmode="layer"
     id="layer2"
     inkscape:label="Layer 2"
     transform="translate(0,-82)" />
</svg>
