<?xml version="1.0" encoding="UTF-8" standalone="no"?>
<!-- Created with Inkscape (http://www.inkscape.org/) -->

<svg
   xmlns:dc="http://purl.org/dc/elements/1.1/"
   xmlns:cc="http://creativecommons.org/ns#"
   xmlns:rdf="http://www.w3.org/1999/02/22-rdf-syntax-ns#"
   xmlns:svg="http://www.w3.org/2000/svg"
   xmlns="http://www.w3.org/2000/svg"
   xmlns:sodipodi="http://sodipodi.sourceforge.net/DTD/sodipodi-0.dtd"
   xmlns:inkscape="http://www.inkscape.org/namespaces/inkscape"
   width="215mm"
   height="215mm"
   viewBox="0 0 215 215"
   version="1.1"
   id="svg8"
   inkscape:version="0.92.1 r15371"
   sodipodi:docname="social-icon-instagram-white.svg">
  <defs
     id="defs2" />
  <sodipodi:namedview
     id="base"
     pagecolor="#ffffff"
     bordercolor="#666666"
     borderopacity="1.0"
     inkscape:pageopacity="0.0"
     inkscape:pageshadow="2"
     inkscape:zoom="0.7"
     inkscape:cx="163.05399"
     inkscape:cy="331.42857"
     inkscape:document-units="mm"
     inkscape:current-layer="g4547"
     showgrid="false"
     inkscape:window-width="1920"
     inkscape:window-height="986"
     inkscape:window-x="-11"
     inkscape:window-y="-11"
     inkscape:window-maximized="1" />
  <metadata
     id="metadata5">
    <rdf:RDF>
      <cc:Work
         rdf:about="">
        <dc:format>image/svg+xml</dc:format>
        <dc:type
           rdf:resource="http://purl.org/dc/dcmitype/StillImage" />
        <dc:title></dc:title>
      </cc:Work>
    </rdf:RDF>
  </metadata>
  <g
     inkscape:label="Layer 1"
     inkscape:groupmode="layer"
     id="layer1"
     style="display:inline"
     transform="translate(0,-82)">
    <g
       transform="matrix(5.6970998,0,0,-5.6730985,-598.79892,290.4988)"
       inkscape:label="ink_ext_XXXXXX"
       id="g4547">
      <g
         id="g4704"
         transform="matrix(0.00619223,0,0,0.00621843,144.10265,1.3380928)">
        <g
           id="g4720">
          <path
             inkscape:connector-curvature="0"
             id="path4706"
             style="fill:#f7f9ff;fill-opacity:1;fill-rule:nonzero;stroke:none;stroke-width:1.19882548"
             d="m -3250.4323,5659.8386 c -822.3977,0 -925.519,-3.4674 -1248.5016,-18.1259 -322.3095,-14.6227 -542.4354,-65.545 -735.0506,-139.9975 -199.1265,-76.9753 -367.9958,-179.9677 -536.3447,-347.4171 -168.344,-167.4494 -271.886,-335.4368 -349.2708,-533.5065 -74.854,-191.5893 -126.0432,-410.5469 -140.7537,-731.1458 -14.7343,-321.2684 -18.2182,-423.8424 -18.2182,-1241.8753 0,-818.021 3.4839,-920.595 18.2182,-1241.8634 14.7105,-320.5989 65.8997,-539.55646 140.7537,-731.14461 77.3848,-198.06972 180.9268,-366.04757 349.2708,-533.5077 168.3489,-167.449401 337.2182,-270.44302 536.3447,-347.41713 192.6152,-74.4519 412.7411,-125.37408 735.0506,-139.99724 322.9826,-14.65599 426.1039,-18.12614 1248.5016,-18.12614 822.3857,0 925.507,3.47015 1248.4896,18.12614 322.3095,14.62316 542.4354,65.54534 735.047,139.99724 199.1265,76.97411 367.99827,179.967729 536.35312,347.41713 168.34284,167.46013 271.8848,335.43798 349.27082,533.5077 74.84975,191.58815 126.04377,410.54571 140.74446,731.14461 14.73676,321.2684 18.22262,423.8424 18.22262,1241.8634 0,818.0329 -3.48586,920.6069 -18.22262,1241.8753 -14.70069,320.5989 -65.89471,539.5565 -140.74446,731.1458 -77.38602,198.0697 -180.92798,366.0571 -349.27082,533.5065 -168.35485,167.4494 -337.22662,270.4418 -536.35312,347.4171 -192.6116,74.4525 -412.7375,125.3748 -735.047,139.9975 -322.9826,14.6585 -426.1039,18.1259 -1248.4896,18.1259 z m 0,-542.7129 c 808.5385,0 904.3154,-3.0728 1223.6198,-17.564 295.2401,-13.3911 455.5775,-62.4602 562.2807,-103.7098 141.3455,-54.6407 242.219,-119.9107 348.177,-225.3064 105.9701,-105.4076 171.5883,-205.7457 226.52059,-346.341 41.46968,-106.137 90.80056,-265.6234 104.26318,-559.2965 14.56848,-317.6098 17.65767,-412.8784 17.65767,-1217.1375 0,-804.2472 -3.08919,-899.5158 -17.65767,-1217.1256 -13.46262,-293.6731 -62.7935,-453.15953 -104.26318,-559.29649 -54.93229,-140.59649 -120.55049,-240.93221 -226.52059,-346.33026 -105.958,-105.40762 -206.8315,-170.6776 -348.177,-225.31715 -106.7032,-41.24958 -267.0406,-90.31745 -562.2807,-103.70742 -319.2563,-14.49355 -415.0212,-17.56635 -1223.6198,-17.56635 -808.6105,0 -904.3634,3.0728 -1223.6318,17.56635 -295.2401,13.38997 -455.5774,62.45784 -562.2807,103.70742 -141.3467,54.63955 -242.2178,119.90953 -348.1782,225.31715 -105.9604,105.39805 -171.5883,205.73377 -226.5194,346.33026 -41.4696,106.13696 -90.7945,265.62339 -104.2656,559.29649 -14.5696,317.6098 -17.6552,412.8784 -17.6552,1217.1256 0,804.2591 3.0856,899.5277 17.6552,1217.1375 13.4711,293.6731 62.796,453.1595 104.2656,559.2965 54.9311,140.5953 120.5542,240.9334 226.5146,346.3291 105.9652,105.4076 206.8363,170.6776 348.183,225.3183 106.7033,41.2496 267.0406,90.3187 562.2807,103.7098 319.3044,14.4912 415.0814,17.564 1223.6318,17.564" />
          <path
             inkscape:connector-curvature="0"
             id="path4708"
             style="fill:#f7f9ff;fill-opacity:1;fill-rule:nonzero;stroke:none;stroke-width:1.19882548"
             d="m -3250.4323,1643.7557 c -557.4726,0 -1009.3839,449.5128 -1009.3839,1004.0148 0,554.5139 451.9113,1004.0267 1009.3839,1004.0267 557.4606,0 1009.3719,-449.5128 1009.3719,-1004.0267 0,-554.502 -451.9113,-1004.0148 -1009.3719,-1004.0148 z m 0,2550.7544 c -858.8069,0 -1554.9925,-692.4907 -1554.9925,-1546.7396 0,-854.2369 696.1856,-1546.7277 1554.9925,-1546.7277 858.7949,0 1554.9806,692.4908 1554.9806,1546.7277 0,854.2489 -696.1857,1546.7396 -1554.9806,1546.7396" />
          <path
             inkscape:connector-curvature="0"
             id="path4710"
             style="fill:#f7f9ff;fill-opacity:1;fill-rule:nonzero;stroke:none;stroke-width:1.19882548"
             d="m -1270.634,4255.6193 c 0,-199.6241 -162.6933,-361.442 -363.3825,-361.442 -200.6772,0 -363.3705,161.8179 -363.3705,361.442 0,199.624 162.6933,361.4539 363.3705,361.4539 200.6892,0 363.3825,-161.8299 363.3825,-361.4539" />
        </g>
      </g>
    </g>
  </g>
  <g
     inkscape:groupmode="layer"
     id="layer2"
     inkscape:label="Layer 2"
     transform="translate(0,-82)" />
</svg>
