<?xml version="1.0" encoding="UTF-8" standalone="no"?>
<!-- Created with Inkscape (http://www.inkscape.org/) -->

<svg
   xmlns:dc="http://purl.org/dc/elements/1.1/"
   xmlns:cc="http://creativecommons.org/ns#"
   xmlns:rdf="http://www.w3.org/1999/02/22-rdf-syntax-ns#"
   xmlns:svg="http://www.w3.org/2000/svg"
   xmlns="http://www.w3.org/2000/svg"
   xmlns:sodipodi="http://sodipodi.sourceforge.net/DTD/sodipodi-0.dtd"
   xmlns:inkscape="http://www.inkscape.org/namespaces/inkscape"
   width="215mm"
   height="215mm"
   viewBox="0 0 215 215"
   version="1.1"
   id="svg8"
   inkscape:version="0.92.1 r15371"
   sodipodi:docname="social-icon-linkedin-white.svg">
  <defs
     id="defs2" />
  <sodipodi:namedview
     id="base"
     pagecolor="#ffffff"
     bordercolor="#666666"
     borderopacity="1.0"
     inkscape:pageopacity="0.0"
     inkscape:pageshadow="2"
     inkscape:zoom="0.7"
     inkscape:cx="-53.696459"
     inkscape:cy="331.42857"
     inkscape:document-units="mm"
     inkscape:current-layer="g4547"
     showgrid="false"
     inkscape:window-width="1920"
     inkscape:window-height="986"
     inkscape:window-x="-11"
     inkscape:window-y="-11"
     inkscape:window-maximized="1" />
  <metadata
     id="metadata5">
    <rdf:RDF>
      <cc:Work
         rdf:about="">
        <dc:format>image/svg+xml</dc:format>
        <dc:type
           rdf:resource="http://purl.org/dc/dcmitype/StillImage" />
        <dc:title></dc:title>
      </cc:Work>
    </rdf:RDF>
  </metadata>
  <g
     inkscape:label="Layer 1"
     inkscape:groupmode="layer"
     id="layer1"
     style="display:inline"
     transform="translate(0,-82)">
    <g
       transform="matrix(5.6970998,0,0,-5.6730985,-598.79892,290.4988)"
       inkscape:label="ink_ext_XXXXXX"
       id="g4547">
      <g
         transform="matrix(0.10402645,0,0,0.10460954,-5.0918421,-1.0630282)"
         id="g4549">
        <path
           inkscape:connector-curvature="0"
           id="path4567"
           style="fill:#f7f9ff;fill-opacity:1;fill-rule:nonzero;stroke:none"
           d="m 1367.44,53.2422 h -53.38 v 83.5428 c 0,19.926 -0.35,45.555 -27.75,45.555 -27.78,0 -32.02,-21.715 -32.02,-44.125 V 53.2422 h -53.33 V 225.039 h 51.18 v -23.484 h 0.73 c 7.12,13.504 24.55,27.746 50.53,27.746 54.05,0 64.04,-35.571 64.04,-81.84 z M 1140.75,248.512 c -17.15,0 -30.97,13.871 -30.97,30.965 0,17.089 13.82,30.964 30.97,30.964 17.08,0 30.95,-13.875 30.95,-30.964 0,-17.094 -13.87,-30.965 -30.95,-30.965 z m 26.71,-195.2698 h -53.44 V 225.039 h 53.44 z M 1394.03,360 h -306.8 c -14.65,0 -26.56,-11.621 -26.56,-25.957 V 25.9766 C 1060.67,11.6406 1072.58,0 1087.23,0 h 306.8 c 14.69,0 26.63,11.6406 26.63,25.9766 V 334.043 c 0,14.336 -11.94,25.957 -26.63,25.957" />
      </g>
    </g>
  </g>
  <g
     inkscape:groupmode="layer"
     id="layer2"
     inkscape:label="Layer 2"
     transform="translate(0,-82)" />
</svg>
