<svg xmlns="http://www.w3.org/2000/svg" viewBox="0 0 243.84 281.15"><defs><style>.cls-1{fill:#fff;}</style></defs><title>aAsset 10</title><g id="Layer_2" data-name="Layer 2"><g id="Layer_2-2" data-name="Layer 2"><path class="cls-1" d="M213.41,0,29.57,73.88,0,117.25,213.41,0,229,230.8l14.84-56.08L213.41,0ZM0,117.25l38.82,163.9L229,230.8,0,117.25Z"/><path class="cls-1" d="M206.88,10,36.17,78.64,8.71,118.92,206.88,10l14.47,214.31,13.78-52.07L206.88,10ZM8.71,118.92l36,152.19,176.6-46.76L8.71,118.92Z"/><path d="M213.51,1.7,38.06,72.2,9.84,113.59,213.51,1.7,228.38,222l14.16-53.52L213.51,1.7ZM9.84,113.59,46.89,270,228.38,222,9.84,113.59Z"/></g></g></svg>