<?xml version="1.0" encoding="utf-8"?>
<!-- Generator: Adobe Illustrator 22.1.0, SVG Export Plug-In . SVG Version: 6.00 Build 0)  -->
<svg version="1.1" id="Layer_3" xmlns="http://www.w3.org/2000/svg" xmlns:xlink="http://www.w3.org/1999/xlink" x="0px" y="0px"
	 viewBox="0 0 609.4 609.4" style="enable-background:new 0 0 609.4 609.4;" xml:space="preserve">
<style type="text/css">
	.st0{opacity:0.93;fill:#E75425;stroke:#FFFFFF;stroke-width:6;stroke-miterlimit:10;}
	.st1{opacity:0.93;fill:#2DA4AA;stroke:#FFFFFF;stroke-width:6;stroke-miterlimit:10;}
</style>
<polygon class="st0" points="191.1,263.1 191.1,193.7 130.9,159 70.8,193.7 70.8,263.1 130.9,297.8 "/>
<polygon class="st0" points="400.3,383.1 400.3,313.7 340.2,279 280.1,313.7 280.1,383.1 340.2,417.8 "/>
<polygon class="st0" points="607,263.3 607,193.9 546.9,159.2 486.7,193.9 486.7,263.3 546.9,298 "/>
<polygon class="st1" points="419.7,313.7 419.7,383.1 479.9,417.8 540,383.1 540,313.7 479.9,279 "/>
<polygon class="st1" points="210.5,193.7 210.5,263.1 270.6,297.8 330.7,263.1 330.7,193.7 270.6,159 "/>
<polygon class="st1" points="3.8,313.5 3.8,382.9 63.9,417.6 124.1,382.9 124.1,313.5 63.9,278.8 "/>
</svg>
