<svg xmlns="http://www.w3.org/2000/svg" viewBox="0 0 360 360"><defs><style>.cls-1{fill:#3453a3;}.cls-2{fill:#fff;}.cls-3{fill:#a31e58;}</style></defs><title>aAsset 1</title><g id="Layer_2" data-name="Layer 2"><g id="Square_Logo" data-name="Square Logo"><path class="cls-1" d="M291.51,357V111.94c0-29.77-35.8-43.16-61.22-43.16-23.75,0-59.08,11.49-59.08,43.16V357H103.58V128.49c0-41.15,11.12-72.68,33-93.72S190.09,3,230.29,3c39.65,0,71,10.69,93.26,31.78S357,87.36,357,128.49V357Z"/><path class="cls-2" d="M230.29,6c19.56,0,37.18,2.63,52.37,7.83A105.51,105.51,0,0,1,321.49,37,96.48,96.48,0,0,1,345.76,74.9c5.47,15.26,8.24,33.29,8.24,53.59V354H294.51V111.94c0-15.24-8.36-27.79-24.16-36.31a88.23,88.23,0,0,0-40.06-9.85c-24.95,0-62.08,12.29-62.08,46.16V354H106.58V128.49c0-20.31,2.74-38.35,8.15-53.61a96.58,96.58,0,0,1,24-37.95,103.5,103.5,0,0,1,38.7-23.1C192.65,8.63,210.45,6,230.29,6m0-6q-61.8,0-95.75,32.6t-34,95.89V360h73.63V111.94c0-30.36,35-40.16,56.08-40.16,21.62,0,58.22,11,58.22,40.16V360H360V128.49q0-63.29-34.38-95.89T230.29,0Z"/><path class="cls-3" d="M3,357V308.48H53.51c10,0,16.87-1.85,21.08-5.67S81,292.63,81,284V131.43H33.3V79.24H81V62.6c0-20.84,6-36.11,17.9-45.37C111,7.79,129.26,3,153.16,3h53V51.52H175.78c-5.13,0-17.68.55-23.32,5.67-4.29,3.9-4.26,15.64-4.14,19.15l.09,2.9h57.18v52.19h-52.8V284c0,21.74-6.28,49.73-17.91,58.8-12,9.34-43.13,14.23-67.7,14.23Z"/><path class="cls-2" d="M203.15,6V48.52H175.78c-6.81,0-19.15.84-25.34,6.45-4.92,4.46-5.32,15.36-5.12,21.46l.18,5.81h57.09v46.19h-52.8V284c0,21.32-6.27,48.26-16.75,56.43C121.71,349.23,90.65,354,67.18,354H6V311.48H53.51c10.75,0,18.31-2.11,23.1-6.45S84,293.51,84,284V128.43H36.3V82.24H84V62.6c0-20.15,5.48-34.22,16.75-43C112.3,10.57,129.94,6,153.16,6h50m6-6h-56Q116.09,0,97,14.86T78,62.6V76.24H30.3v58.19H78V284q0,11.71-5.4,16.62t-19.07,4.89H0V360H67.18c24.7,0,56.83-5,69.54-14.86s19.07-39.25,19.07-61.17V134.43h52.8V76.24H151.31s-.43-13.56,3.16-16.83,12.19-4.89,21.31-4.89h33.37V0Z"/></g></g></svg>