<?xml version="1.0" encoding="UTF-8" standalone="no"?>
<svg
   xmlns:dc="http://purl.org/dc/elements/1.1/"
   xmlns:cc="http://creativecommons.org/ns#"
   xmlns:rdf="http://www.w3.org/1999/02/22-rdf-syntax-ns#"
   xmlns:svg="http://www.w3.org/2000/svg"
   xmlns="http://www.w3.org/2000/svg"
   width="215mm"
   height="215mm"
   viewBox="0 0 215 215"
   version="1.1"
   id="svg8">
  <defs
     id="defs2" />
  <metadata
     id="metadata5">
    <rdf:RDF>
      <cc:Work
         rdf:about="">
        <dc:format>image/svg+xml</dc:format>
        <dc:type
           rdf:resource="http://purl.org/dc/dcmitype/StillImage" />
        <dc:title></dc:title>
      </cc:Work>
    </rdf:RDF>
  </metadata>
  <g
     id="text5868"
     style="font-style:normal;font-variant:normal;font-weight:normal;font-stretch:normal;font-size:163.63557434px;line-height:1.25;font-family:'Times New Roman';-inkscape-font-specification:'Times New Roman, ';letter-spacing:0px;word-spacing:0px;fill:#799485;fill-opacity:1;stroke:none;stroke-width:4.09088945"
     transform="rotate(-6.5560017,-715.85196,-41)"
     aria-label="P">
    <path
       id="path4487"
       style="font-style:normal;font-variant:normal;font-weight:normal;font-stretch:normal;font-family:'Lucida Handwriting';-inkscape-font-specification:'Lucida Handwriting';fill:#799485;fill-opacity:1;stroke-width:4.09088945"
       d="m 68.182212,213.27863 -7.031216,35.07618 c -1.012069,5.06035 -1.518103,8.33625 -1.518103,9.82772 0,1.49147 0.346234,3.08948 1.038702,4.79401 -5.486479,2.71661 -10.413657,4.07491 -14.781534,4.07491 -2.769873,0 -4.154809,-1.1186 -4.154809,-3.3558 0,-1.17187 0.532668,-4.50105 1.598003,-9.98753 l 8.389519,-41.86769 c -13.476497,-3.03621 -20.214746,-7.51062 -20.214746,-13.42323 0,-1.22514 0.266334,-2.79651 0.799002,-4.71411 5.752813,4.74074 12.730763,8.17645 20.933848,10.30712 1.119947,-11.81531 6.76744,-25.47604 6.871416,-37.31339 0,-1.86433 -0.639202,-3.56887 -1.917605,-5.11361 7.084483,-2.66334 12.011661,-3.99501 14.781534,-3.99501 3.302541,0 4.953811,1.91761 4.953811,5.75282 0,0.90553 -0.878902,5.56638 -2.636706,13.98253 l -5.593012,28.12486 c 15.340835,0 27.885163,-3.78194 37.632984,-11.34582 9.74783,-7.56389 14.62174,-17.25844 14.62174,-29.08367 0,-6.49855 -2.55681,-11.71869 -7.67042,-15.66044 -5.06035,-3.99501 -11.77196,-5.99251 -20.134848,-5.99251 -24.928857,0 -44.930537,10.44029 -60.005038,31.32087 -1.278403,-3.30254 -1.917604,-5.88598 -1.917604,-7.75032 0,-8.04328 7.191016,-15.52726 21.573049,-22.45195 14.4353,-6.97795 30.04247,-10.46692 46.821511,-10.46692 25.46152,0 38.19228,9.37495 38.19228,28.12486 0,13.68957 -6.63171,25.64796 -19.89514,35.87519 -13.21016,10.22722 -28.657534,15.34083 -46.342108,15.34083 z" />
  </g>
  <g
     id="layer2"
     transform="translate(0,-82)">
    <rect
       style="opacity:0;fill:#2f11f4;fill-opacity:1;stroke:#762c00;stroke-width:1.39999998;stroke-linecap:round;stroke-linejoin:round;stroke-miterlimit:4;stroke-dasharray:none;stroke-opacity:1;paint-order:stroke fill markers"
       id="rect5086"
       width="74.839287"
       height="108.47916"
       x="38.55357"
       y="103.09821"
       rx="0.39999971"
       ry="0.79999942" />
  </g>
</svg>
