<?xml version="1.0" encoding="UTF-8" standalone="no"?>
<svg
   xmlns:dc="http://purl.org/dc/elements/1.1/"
   xmlns:cc="http://creativecommons.org/ns#"
   xmlns:rdf="http://www.w3.org/1999/02/22-rdf-syntax-ns#"
   xmlns:svg="http://www.w3.org/2000/svg"
   xmlns="http://www.w3.org/2000/svg"
   xmlns:sodipodi="http://sodipodi.sourceforge.net/DTD/sodipodi-0.dtd"
   xmlns:inkscape="http://www.inkscape.org/namespaces/inkscape"
   width="215mm"
   height="215mm"
   viewBox="0 0 215 215"
   version="1.1"
   id="svg8"
   sodipodi:docname="homepage-icon-teeny.svg"
   inkscape:version="0.92.1 r15371">
  <sodipodi:namedview
     pagecolor="#ffffff"
     bordercolor="#666666"
     borderopacity="1"
     objecttolerance="10"
     gridtolerance="10"
     guidetolerance="10"
     inkscape:pageopacity="0"
     inkscape:pageshadow="2"
     inkscape:window-width="1920"
     inkscape:window-height="986"
     id="namedview9269"
     showgrid="false"
     inkscape:zoom="1.1617054"
     inkscape:cx="466.34025"
     inkscape:cy="365.07722"
     inkscape:window-x="-11"
     inkscape:window-y="-11"
     inkscape:window-maximized="1"
     inkscape:current-layer="svg8" />
  <defs
     id="defs2" />
  <metadata
     id="metadata5">
    <rdf:RDF>
      <cc:Work
         rdf:about="">
        <dc:format>image/svg+xml</dc:format>
        <dc:type
           rdf:resource="http://purl.org/dc/dcmitype/StillImage" />
        <dc:title />
      </cc:Work>
    </rdf:RDF>
  </metadata>
  <circle
     id="circle4487-2-1"
     cx="107.5"
     cy="107.5"
     r="83.540848"
     style="display:inline;fill:#fafafa;fill-opacity:1;stroke:#fafafa;stroke-width:4.33628702;stroke-miterlimit:4;stroke-dasharray:none;stroke-dashoffset:0;stroke-opacity:1" />
  <circle
     id="circle4487"
     cx="107.5"
     cy="107.5"
     r="67.361481"
     style="fill:#000000;fill-opacity:1;stroke:#000005;stroke-width:3.49647427;stroke-miterlimit:4;stroke-dasharray:none;stroke-dashoffset:0;stroke-opacity:0.98823529" />
  <circle
     id="circle4487-2"
     cx="107.5"
     cy="107.5"
     r="81.645393"
     style="display:inline;fill:none;fill-opacity:1;stroke:#000005;stroke-width:4.23789835;stroke-miterlimit:4;stroke-dasharray:none;stroke-dashoffset:0;stroke-opacity:0.98823529" />
  <g
     transform="translate(3e-6,-81.999995)"
     id="text4539"
     style="font-style:normal;font-variant:normal;font-weight:500;font-stretch:normal;font-size:45.28168106px;line-height:1.25;font-family:Raleway;-inkscape-font-specification:'Raleway Medium';letter-spacing:0px;word-spacing:0px;fill:#ffffff;fill-opacity:1;stroke:none;stroke-width:0.23584211"
     aria-label="teeny">
    <path
       id="path4489"
       style="font-style:normal;font-variant:normal;font-weight:500;font-stretch:normal;font-family:Raleway;-inkscape-font-specification:'Raleway Medium';fill:#ffffff;fill-opacity:1;stroke-width:0.23584211"
       d="m 62.729505,198.98651 q -0.362253,0.18113 -0.950915,0.45282 -0.588662,0.22641 -1.35845,0.4981 -0.724507,0.2264 -1.630141,0.36225 -0.860352,0.18113 -1.811267,0.18113 -2.173521,0 -3.75838,-1.17733 -1.584858,-1.2226 -1.584858,-3.75838 v -15.89387 h -3.215 v -3.12443 h 3.215 v -7.87902 h 3.984787 v 7.87902 h 5.297957 v 3.12443 h -5.297957 v 14.67127 q 0.09056,1.31317 0.860352,1.90183 0.769789,0.58866 1.811268,0.58866 1.177323,0 2.128239,-0.36225 0.996197,-0.40754 1.35845,-0.63395 z" />
    <path
       id="path4491"
       style="font-style:normal;font-variant:normal;font-weight:500;font-stretch:normal;font-family:Raleway;-inkscape-font-specification:'Raleway Medium';fill:#ffffff;fill-opacity:1;stroke-width:0.23584211"
       d="m 76.529097,200.61665 q -2.671619,0 -4.890421,-0.95091 -2.218803,-0.9962 -3.803661,-2.67162 -1.584859,-1.67543 -2.490493,-3.89423 -0.860352,-2.26408 -0.860352,-4.75458 0,-2.49049 0.860352,-4.70929 0.905634,-2.2188 2.490493,-3.89422 1.63014,-1.67543 3.848942,-2.62634 2.218803,-0.9962 4.890422,-0.9962 2.671619,0 4.84514,0.9962 2.218802,0.99619 3.758379,2.67162 1.539578,1.63014 2.354648,3.84894 0.860352,2.17352 0.860352,4.52817 0,0.4981 -0.04528,0.90563 0,0.40754 -0.04528,0.63395 H 68.695367 q 0.135845,1.76598 0.81507,3.21499 0.679225,1.44902 1.765985,2.4905 1.086761,1.04148 2.445211,1.63014 1.403732,0.58866 2.943309,0.58866 1.086761,0 2.128239,-0.27169 1.041479,-0.31697 1.947113,-0.81507 0.905633,-0.4981 1.584859,-1.22261 0.724506,-0.7245 1.08676,-1.63014 l 3.441408,0.95092 q -0.588662,1.31317 -1.630141,2.39993 -0.996197,1.08676 -2.354647,1.90183 -1.313169,0.76979 -2.94331,1.2226 -1.63014,0.45282 -3.396126,0.45282 z m 8.105421,-13.85619 q -0.135845,-1.67543 -0.860352,-3.07916 -0.679225,-1.44901 -1.765985,-2.44521 -1.041479,-0.9962 -2.445211,-1.53958 -1.403732,-0.58866 -2.988591,-0.58866 -1.584859,0 -2.988591,0.58866 -1.403732,0.54338 -2.490492,1.58486 -1.041479,0.9962 -1.720704,2.39993 -0.633944,1.40373 -0.769789,3.07916 z" />
    <path
       id="path4493"
       style="font-style:normal;font-variant:normal;font-weight:500;font-stretch:normal;font-family:Raleway;-inkscape-font-specification:'Raleway Medium';fill:#ffffff;fill-opacity:1;stroke-width:0.23584211"
       d="m 103.32666,200.61665 q -2.67162,0 -4.890425,-0.95091 -2.218803,-0.9962 -3.803662,-2.67162 -1.584858,-1.67543 -2.490492,-3.89423 -0.860352,-2.26408 -0.860352,-4.75458 0,-2.49049 0.860352,-4.70929 0.905634,-2.2188 2.490492,-3.89422 1.630141,-1.67543 3.848943,-2.62634 2.218804,-0.9962 4.890424,-0.9962 2.67162,0 4.84514,0.9962 2.2188,0.99619 3.75838,2.67162 1.53957,1.63014 2.35464,3.84894 0.86036,2.17352 0.86036,4.52817 0,0.4981 -0.0453,0.90563 0,0.40754 -0.0453,0.63395 H 95.492925 q 0.135845,1.76598 0.815071,3.21499 0.679225,1.44902 1.765985,2.4905 1.08676,1.04148 2.445209,1.63014 1.40373,0.58866 2.94331,0.58866 1.08676,0 2.12824,-0.27169 1.04148,-0.31697 1.94711,-0.81507 0.90564,-0.4981 1.58486,-1.22261 0.72451,-0.7245 1.08676,-1.63014 l 3.44141,0.95092 q -0.58866,1.31317 -1.63014,2.39993 -0.9962,1.08676 -2.35465,1.90183 -1.31317,0.76979 -2.94331,1.2226 -1.63014,0.45282 -3.39612,0.45282 z m 8.10542,-13.85619 q -0.13585,-1.67543 -0.86035,-3.07916 -0.67923,-1.44901 -1.76599,-2.44521 -1.04148,-0.9962 -2.44521,-1.53958 -1.40373,-0.58866 -2.98859,-0.58866 -1.58486,0 -2.98859,0.58866 -1.403735,0.54338 -2.490496,1.58486 -1.041478,0.9962 -1.720703,2.39993 -0.633944,1.40373 -0.769789,3.07916 z" />
    <path
       id="path4495"
       style="font-style:normal;font-variant:normal;font-weight:500;font-stretch:normal;font-family:Raleway;-inkscape-font-specification:'Raleway Medium';fill:#ffffff;fill-opacity:1;stroke-width:0.23584211"
       d="m 140.17674,200.16383 h -3.98478 v -13.22225 q 0,-3.80366 -1.17733,-5.52436 -1.13204,-1.72071 -3.48669,-1.72071 -1.2226,0 -2.44521,0.4981 -1.2226,0.45282 -2.30936,1.26789 -1.08676,0.81507 -1.90183,1.94711 -0.81508,1.13204 -1.22261,2.49049 v 14.26373 h -3.98479 V 176.5268 h 3.62254 v 5.07154 q 1.40373,-2.49049 4.03007,-3.98478 2.67162,-1.4943 5.79605,-1.4943 2.03768,0 3.39613,0.76979 1.35845,0.72451 2.17352,2.08296 0.81507,1.31317 1.13204,3.12443 0.36225,1.81127 0.36225,3.93951 z" />
    <path
       id="path4497"
       style="font-style:normal;font-variant:normal;font-weight:500;font-stretch:normal;font-family:Raleway;-inkscape-font-specification:'Raleway Medium';fill:#ffffff;fill-opacity:1;stroke-width:0.23584211"
       d="m 147.01782,206.59383 q 0.58866,0.0906 1.17732,0.13585 0.58866,0.0453 0.90563,0.0453 0.54338,0 0.95092,-0.27169 0.45282,-0.22641 0.86035,-0.95092 0.45282,-0.7245 0.9962,-2.03767 0.54338,-1.26789 1.35845,-3.35085 L 143.25944,176.5268 h 4.12063 l 8.06014,20.05978 7.33563,-20.05978 h 3.80366 l -11.50154,29.84062 q -0.63395,1.58486 -2.12824,2.76219 -1.44902,1.2226 -4.03007,1.2226 -0.40754,0 -0.86035,-0.0453 -0.40754,-0.0453 -1.04148,-0.18113 z" />
  </g>
  <g
     id="layer2"
     transform="translate(0,-82)">
    <rect
       style="opacity:0;fill:#2f11f4;fill-opacity:1;stroke:#762c00;stroke-width:1.39999998;stroke-linecap:round;stroke-linejoin:round;stroke-miterlimit:4;stroke-dasharray:none;stroke-opacity:1;paint-order:stroke fill markers"
       id="rect5086"
       width="74.839287"
       height="108.47916"
       x="38.55357"
       y="103.09821"
       rx="0.39999971"
       ry="0.79999942" />
  </g>
</svg>
