<?xml version="1.0" encoding="utf-8"?>
<!-- Generator: Adobe Illustrator 23.0.1, SVG Export Plug-In . SVG Version: 6.00 Build 0)  -->
<svg version="1.1"
	 id="svg8" xmlns:cc="http://creativecommons.org/ns#" xmlns:dc="http://purl.org/dc/elements/1.1/" xmlns:rdf="http://www.w3.org/1999/02/22-rdf-syntax-ns#" xmlns:svg="http://www.w3.org/2000/svg"
	 xmlns="http://www.w3.org/2000/svg" xmlns:xlink="http://www.w3.org/1999/xlink" x="0px" y="0px" viewBox="0 0 609.4 609.4"
	 style="enable-background:new 0 0 609.4 609.4;" xml:space="preserve">
<style type="text/css">
	.st0{fill:#FFFFFF;}
	.st1{fill:#FF962A;}
</style>
<g>
	<polygon class="st0" points="15.3,7.2 469.7,7.2 242.5,234.4 	"/>
	<path d="M456.4,12.7L242.5,226.7L28.6,12.7H456.4 M483,1.7H2l240.5,240.5L483,1.7L483,1.7z"/>
</g>
<g>
	<polygon class="st0" points="15.3,477.2 242.5,250 469.7,477.2 	"/>
	<path d="M242.5,257.8l213.9,213.9H28.6L242.5,257.8 M242.5,242.2L2,482.7h481L242.5,242.2L242.5,242.2z"/>
</g>
<polygon class="st1" points="244.3,392.2 125.4,514.6 601,514.6 482.1,392.2 "/>
<polygon class="st1" points="363.2,314.2 488.6,188.8 237.8,188.8 "/>
</svg>
