<?xml version="1.0" encoding="utf-8"?>
<!-- Generator: Adobe Illustrator 24.0.1, SVG Export Plug-In . SVG Version: 6.00 Build 0)  -->
<svg version="1.1" id="Layer_1" xmlns="http://www.w3.org/2000/svg" xmlns:xlink="http://www.w3.org/1999/xlink" x="0px" y="0px"
	 viewBox="0 0 256 256" style="enable-background:new 0 0 256 256;" xml:space="preserve">
<style type="text/css">
	.st0{fill:#FEBBC3;stroke:#7D7D7D;stroke-width:0.3298;stroke-linejoin:bevel;}
	.st1{enable-background:new    ;}
	.st2{fill:#FFFFD5;stroke:#7D7D7D;stroke-width:0.3971;stroke-linejoin:bevel;}
	.st3{fill:#8FC0E5;stroke:#7D7D7D;stroke-width:0.3394;stroke-linejoin:bevel;}
	.st4{font-family:'AllRoundGothic-Book';}
	.st5{font-size:31px;}
	.st6{font-size:25.8103px;}
</style>
<circle class="st0" cx="88" cy="87" r="84.3"/>
<g class="st1">
	<path d="M33.8,101.8c21.5,0,29-5.8,41.1-37.2C85.3,37.4,99.5,25,126.4,25h5.6v41.4h-0.2c-12.7,0-17.3,12-24,31.1
		c-11.1,31.6-31.5,45.8-63.5,45.8H33.8V101.8z"/>
</g>
<ellipse class="st2" cx="88.8" cy="197.6" rx="61.5" ry="58"/>
<g class="st1">
	<path d="M130.4,232H48.6l13.6-68.8l27.3,20.9l27.3-20.9L130.4,232z"/>
</g>
<circle class="st3" cx="179.8" cy="120.1" r="67"/>
<g class="st1">
	<path d="M180.7,65.7l45.1,92h-90.2L180.7,65.7z"/>
</g>
<text transform="matrix(1 0 0 1 149.0018 226.5603)" class="st4 st5">Samuel</text>
<text transform="matrix(1 0 0 1 139.2293 246.7127)" class="st4 st6">Animates</text>
</svg>
