<?xml version="1.0" encoding="utf-8"?>
<!-- Generator: Adobe Illustrator 24.0.1, SVG Export Plug-In . SVG Version: 6.00 Build 0)  -->
<svg version="1.1" id="Layer_1" xmlns="http://www.w3.org/2000/svg" xmlns:xlink="http://www.w3.org/1999/xlink" x="0px" y="0px"
	 viewBox="0 0 256 256" style="enable-background:new 0 0 256 256;" xml:space="preserve">
<style type="text/css">
	.st0{fill:#FEBBC3;stroke:#7D7D7D;stroke-width:0.3312;stroke-linejoin:bevel;}
	.st1{enable-background:new    ;}
	.st2{fill:#FFFFD5;stroke:#7D7D7D;stroke-width:0.3987;stroke-linejoin:bevel;}
	.st3{fill:#8FC0E5;stroke:#7D7D7D;stroke-width:0.3408;stroke-linejoin:bevel;}
</style>
<circle class="st0" cx="91" cy="85.8" r="84.6"/>
<g class="st1">
	<path d="M36.6,100.6c21.6,0,29.2-5.8,41.3-37.4c10.5-27.3,24.7-39.8,51.7-39.8h5.6v41.6H135c-12.8,0-17.4,12-24.1,31.2
		c-11.1,31.8-31.6,46-63.7,46H36.6V100.6z"/>
</g>
<ellipse class="st2" cx="91.8" cy="196.8" rx="61.7" ry="58.2"/>
<g class="st1">
	<path d="M133.5,231.4H51.5l13.6-69.1l27.4,21l27.4-21L133.5,231.4z"/>
</g>
<circle class="st3" cx="183.2" cy="119" r="67.3"/>
<g class="st1">
	<path d="M184.1,64.4l45.3,92.4h-90.5L184.1,64.4z"/>
</g>
</svg>
