<svg id="Layer_1" data-name="Layer 1" xmlns="http://www.w3.org/2000/svg" viewBox="0 0 545.75 371"><defs><style>.cls-1{fill:#fff;stroke:#2b2b2b;}.cls-2{fill:#febbc3;}.cls-2,.cls-3,.cls-4{stroke:#7d7d7d;stroke-linejoin:bevel;stroke-width:0.51px;}.cls-3{fill:#8fc0e5;}.cls-4{fill:#ffffd5;}.cls-5{isolation:isolate;}.cls-6{fill:none;stroke:#fff;stroke-width:0.37px;}.cls-7{fill:#232323;}</style></defs><title>logo</title><g id="Layer_3" data-name="Layer 3"><rect class="cls-1" x="0.5" y="0.5" width="519.6" height="370"/></g><g id="svg8"><rect id="rect4728" class="cls-2" x="0.5" y="0.5" width="141.8" height="370"/><rect id="rect4728-3" class="cls-3" x="155.8" y="0.5" width="141.8" height="370"/><rect id="rect4728-5" class="cls-4" x="311.1" y="0.5" width="234.4" height="370"/></g><g id="Layer_4" data-name="Layer 4"><g class="cls-5"><g class="cls-5"><path d="M13.09,185.14A88.06,88.06,0,0,0,56.45,197c21,0,32.73-10.21,32.73-25.39,0-14.08-9.05-22.36-31.93-30.92-29.53-11-48.42-27.32-48.42-54.09,0-30.36,24.48-53.55,63.32-53.55,19.42,0,33.79,4.42,43.1,9.39l-8,27.32a73.76,73.76,0,0,0-35.65-8.83c-20.75,0-29.8,11.59-29.8,22.36,0,14.35,10.38,21,34.32,30.63,31.13,12.15,46.29,28.43,46.29,55.2,0,29.81-21.81,55.75-68.1,55.75-18.89,0-38.58-5.51-48.42-11.59Z" transform="translate(0.5 -0.2)"/></g><g class="cls-5"><path class="cls-6" d="M13.09,185.14A88.06,88.06,0,0,0,56.45,197c21,0,32.73-10.21,32.73-25.39,0-14.08-9.05-22.36-31.93-30.92-29.53-11-48.42-27.32-48.42-54.09,0-30.36,24.48-53.55,63.32-53.55,19.42,0,33.79,4.42,43.1,9.39l-8,27.32a73.76,73.76,0,0,0-35.65-8.83c-20.75,0-29.8,11.59-29.8,22.36,0,14.35,10.38,21,34.32,30.63,31.13,12.15,46.29,28.43,46.29,55.2,0,29.81-21.81,55.75-68.1,55.75-18.89,0-38.58-5.51-48.42-11.59Z" transform="translate(0.5 -0.2)"/></g><g class="cls-5"><path class="cls-7" d="M147.08,222.13l31.68-83.32h12.33l31.67,83.32h-13l-7.58-20.85H165.42l-7.7,20.85Zm22-30.46h29.33L183.7,151.86Z" transform="translate(0.5 -0.2)"/><path class="cls-7" d="M230.36,222.13V138.81h14.83l17.66,51.3H263l17.34-51.3h15.46v83.32H285.69V150.62h-.12l-18.09,53.91H257.09l-18-52.41h-.13v70Z" transform="translate(0.5 -0.2)"/><path class="cls-7" d="M312.19,138.81h12.34v50.58q0,13.26,4,19.19t13.06,5.95q9.51,0,13.7-5.95t4.2-19.51V138.81h10.76v48.38q0,15.65-3.56,22.47-7.58,14.47-25,14.48-15.09,0-22.32-8.57t-7.23-26.37Z" transform="translate(0.5 -0.2)"/><path class="cls-7" d="M394.28,222.13V138.81h54.27v9.61H406.61v25.26h35.56v9.61H406.61v29.22h44.82v9.62Z" transform="translate(0.5 -0.2)"/><path class="cls-7" d="M472.8,222.13V138.81h12.33v73.7h43.25v9.62Z" transform="translate(0.5 -0.2)"/></g><g class="cls-5"><path class="cls-6" d="M147.08,222.13l31.68-83.32h12.33l31.67,83.32h-13l-7.58-20.85H165.42l-7.7,20.85Zm22-30.46h29.33L183.7,151.86Z" transform="translate(0.5 -0.2)"/><path class="cls-6" d="M230.36,222.13V138.81h14.83l17.66,51.3H263l17.34-51.3h15.46v83.32H285.69V150.62h-.12l-18.09,53.91H257.09l-18-52.41h-.13v70Z" transform="translate(0.5 -0.2)"/><path class="cls-6" d="M312.19,138.81h12.34v50.58q0,13.26,4,19.19t13.06,5.95q9.51,0,13.7-5.95t4.2-19.51V138.81h10.76v48.38q0,15.65-3.56,22.47-7.58,14.47-25,14.48-15.09,0-22.32-8.57t-7.23-26.37Z" transform="translate(0.5 -0.2)"/><path class="cls-6" d="M394.28,222.13V138.81h54.27v9.61H406.61v25.26h35.56v9.61H406.61v29.22h44.82v9.62Z" transform="translate(0.5 -0.2)"/><path class="cls-6" d="M472.8,222.13V138.81h12.33v73.7h43.25v9.62Z" transform="translate(0.5 -0.2)"/></g></g><g class="cls-5"><g class="cls-5"><path d="M87.05,294.51,75.31,334.62H49.6L93.32,193.07H125.1l44.34,141.55H142.72l-12.35-40.11ZM126.12,275l-10.73-34.86c-2.63-8.62-4.86-18.28-6.88-26.47h-.41c-2,8.19-4,18.06-6.48,26.47L91.1,275Z" transform="translate(0.5 -0.2)"/></g><g class="cls-5"><path class="cls-6" d="M87.05,294.51,75.31,334.62H49.6L93.32,193.07H125.1l44.34,141.55H142.72l-12.35-40.11ZM126.12,275l-10.73-34.86c-2.63-8.62-4.86-18.28-6.88-26.47h-.41c-2,8.19-4,18.06-6.48,26.47L91.1,275Z" transform="translate(0.5 -0.2)"/></g><g class="cls-5"><path class="cls-7" d="M170.69,334.62V274.29h8.45L205.71,318h.09v-43.7h7.27v60.33h-8.22l-26.75-44.1H178v44.1Z" transform="translate(0.5 -0.2)"/><path class="cls-7" d="M226.65,334.62v-6.94h15.59V281.42H226.65v-6.94h40.08v6.94H251.14v46.26h15.59v6.94Z" transform="translate(0.5 -0.2)"/><path class="cls-7" d="M277.91,334.62V274.48h10.71l12.74,37h.09l12.52-37h11.16v60.14h-7.27V283h-.09l-13.06,38.91h-7.5l-13-37.83h-.09v50.53Z" transform="translate(0.5 -0.2)"/><path class="cls-7" d="M329,334.62l22.86-60.14h8.9l22.86,60.14h-9.42l-5.47-15.05H342.28l-5.57,15.05Zm15.9-22h21.17L355.47,283.9Z" transform="translate(0.5 -0.2)"/><path class="cls-7" d="M406.73,334.62v-53.2H384.46v-6.94H438v6.94H415.63v53.2Z" transform="translate(0.5 -0.2)"/><path class="cls-7" d="M447.92,334.62V274.48h39.17v6.94H456.82v18.23h25.66v6.94H456.82v21.09h32.35v6.94Z" transform="translate(0.5 -0.2)"/><path class="cls-7" d="M538.62,275.88v8Q528.81,280,521.18,280q-12.06,0-12.06,8.44a7.13,7.13,0,0,0,2.26,5.51q2.25,2.08,8.36,4.29l5.69,2.06,5.42,1.92q12.6,4.59,12.61,15.56A16,16,0,0,1,537,331.08q-6.43,5-17.24,5-7.5,0-19.38-3.33V323.6q11.84,5.53,19.65,5.53,6.6,0,10.53-2.69a8.37,8.37,0,0,0,3.93-7.24,6.9,6.9,0,0,0-2.33-5.49q-2.32-2-9.6-4.78l-6-2.25q-8.91-3.42-12.36-7A13.34,13.34,0,0,1,500.8,290q0-8.12,5.31-12.56T521.05,273A63.36,63.36,0,0,1,538.62,275.88Z" transform="translate(0.5 -0.2)"/></g><g class="cls-5"><path class="cls-6" d="M170.69,334.62V274.29h8.45L205.71,318h.09v-43.7h7.27v60.33h-8.22l-26.75-44.1H178v44.1Z" transform="translate(0.5 -0.2)"/><path class="cls-6" d="M226.65,334.62v-6.94h15.59V281.42H226.65v-6.94h40.08v6.94H251.14v46.26h15.59v6.94Z" transform="translate(0.5 -0.2)"/><path class="cls-6" d="M277.91,334.62V274.48h10.71l12.74,37h.09l12.52-37h11.16v60.14h-7.27V283h-.09l-13.06,38.91h-7.5l-13-37.83h-.09v50.53Z" transform="translate(0.5 -0.2)"/><path class="cls-6" d="M329,334.62l22.86-60.14h8.9l22.86,60.14h-9.42l-5.47-15.05H342.28l-5.57,15.05Zm15.9-22h21.17L355.47,283.9Z" transform="translate(0.5 -0.2)"/><path class="cls-6" d="M406.73,334.62v-53.2H384.46v-6.94H438v6.94H415.63v53.2Z" transform="translate(0.5 -0.2)"/><path class="cls-6" d="M447.92,334.62V274.48h39.17v6.94H456.82v18.23h25.66v6.94H456.82v21.09h32.35v6.94Z" transform="translate(0.5 -0.2)"/><path class="cls-6" d="M538.62,275.88v8Q528.81,280,521.18,280q-12.06,0-12.06,8.44a7.13,7.13,0,0,0,2.26,5.51q2.25,2.08,8.36,4.29l5.69,2.06,5.42,1.92q12.6,4.59,12.61,15.56A16,16,0,0,1,537,331.08q-6.43,5-17.24,5-7.5,0-19.38-3.33V323.6q11.84,5.53,19.65,5.53,6.6,0,10.53-2.69a8.37,8.37,0,0,0,3.93-7.24,6.9,6.9,0,0,0-2.33-5.49q-2.32-2-9.6-4.78l-6-2.25q-8.91-3.42-12.36-7A13.34,13.34,0,0,1,500.8,290q0-8.12,5.31-12.56T521.05,273A63.36,63.36,0,0,1,538.62,275.88Z" transform="translate(0.5 -0.2)"/></g></g></g></svg>