<?xml version="1.0" encoding="utf-8"?>
<!-- Generator: Adobe Illustrator 24.0.1, SVG Export Plug-In . SVG Version: 6.00 Build 0)  -->
<svg version="1.1" id="Layer_1" xmlns="http://www.w3.org/2000/svg" xmlns:xlink="http://www.w3.org/1999/xlink" x="0px" y="0px"
	 viewBox="0 0 256 256" style="enable-background:new 0 0 256 256;" xml:space="preserve">
<style type="text/css">
	.st0{fill:#FEBBC3;stroke:#7D7D7D;stroke-width:0.3298;stroke-linejoin:bevel;}
	.st1{enable-background:new    ;}
	.st2{fill:#FFFFD5;stroke:#7D7D7D;stroke-width:0.3971;stroke-linejoin:bevel;}
	.st3{fill:#8FC0E5;stroke:#7D7D7D;stroke-width:0.3394;stroke-linejoin:bevel;}
</style>
<circle class="st0" cx="88" cy="87" r="84.3"/>
<g class="st1">
	<path d="M33.8,101.8c21.5,0,29-5.8,41.1-37.2C85.3,37.4,99.5,25,126.4,25h5.6v41.4h-0.2c-12.7,0-17.3,12-24,31.1
		c-11.1,31.6-31.5,45.8-63.5,45.8H33.8V101.8z"/>
</g>
<ellipse class="st2" cx="88.8" cy="197.6" rx="61.5" ry="58"/>
<g class="st1">
	<path d="M130.4,232H48.6l13.6-68.8l27.3,20.9l27.3-20.9L130.4,232z"/>
</g>
<circle class="st3" cx="179.8" cy="120.1" r="67"/>
<g class="st1">
	<path d="M180.7,65.7l45.1,92h-90.2L180.7,65.7z"/>
</g>
<g class="st1">
	<path d="M162.3,211.8c-0.1-2.3-1.9-3.8-4.8-3.8c-2.9,0-4.8,1.5-4.8,3.9c0,5.7,12.2,0.9,12.2,8.9c0,3.8-2.9,6.2-7.4,6.2
		c-4.4,0-7.3-2.3-7.4-6.1h2.2c0.1,2.6,2,4.1,5.2,4.1s5.2-1.6,5.2-4.1c0-5.8-12.2-0.9-12.2-8.9c0-3.6,2.8-6,7-6
		c4.1,0,6.8,2.3,6.9,5.9H162.3z"/>
	<path d="M183.4,226.6h-1.9v-3.6h-0.1c-1,2.4-3.4,4-6.5,4c-4.3,0-7.9-3.1-7.9-8.1c0-4.7,3.4-8.1,8.2-8.1s8.2,3.3,8.2,8.2V226.6z
		 M181.3,218.9c0-3.5-2.5-6.1-6.1-6.1c-3.7,0-6.1,2.6-6.1,6.1c0,3.5,2.5,6.1,6.1,6.1C178.8,225,181.3,222.4,181.3,218.9z"/>
	<path d="M197.1,226.6v-9c0-3.2-1.9-4.8-4.3-4.8s-4.3,1.6-4.3,4.8v9h-2.1v-9c0-4.6,2.7-6.8,6.2-6.8c2.5,0,4.5,1.2,5.5,3.4h0.1
		c1-2.2,3-3.4,5.5-3.4c3.5,0,6.2,2.2,6.2,6.8v9h-2.1v-9c0-3.3-1.8-4.8-4.3-4.8s-4.3,1.6-4.3,4.8v9H197.1z"/>
	<path d="M225.9,211.2h2.1v8c0,5.1-3,7.7-7.6,7.7c-4.5,0-7.6-2.6-7.6-7.7v-8h2.1v8c0,3.8,2.2,5.8,5.5,5.8c3.3,0,5.5-2,5.5-5.8V211.2
		z"/>
	<path d="M232.5,219.6c0.3,3.2,2.7,5.5,6.1,5.5c2.4,0,4.3-1,5.3-2.8h2.3c-1.2,2.8-4,4.7-7.5,4.7c-4.8,0-8.2-3.4-8.2-8.1
		c0-4.7,3.4-8.1,8.2-8.1s8.2,3.4,8.2,8.1v0.7H232.5z M232.6,217.7L232.6,217.7l12.1,0.1v-0.1c-0.5-2.9-2.8-4.9-6-4.9
		C235.4,212.8,233.1,214.7,232.6,217.7z"/>
	<path d="M249.8,226.6v-22h2.1v22H249.8z"/>
</g>
<g class="st1">
	<path d="M153.3,246.7V241h-10.9v5.7h-1.8v-10c0-4.4,2.6-7.2,7.3-7.2c4.7,0,7.3,2.8,7.3,7.2v10H153.3z M153.3,236.7
		c0-3.4-1.9-5.5-5.5-5.5c-3.6,0-5.4,2.1-5.4,5.5v2.6h10.9V236.7z"/>
	<path d="M168.6,246.7v-6.7c0-3.1-1.8-4.8-4.6-4.8s-4.6,1.7-4.6,4.8v6.7h-1.7v-6.7c0-4.2,2.5-6.4,6.3-6.4s6.3,2.2,6.3,6.4v6.7H168.6
		z"/>
	<path d="M172.9,230.5c0-0.7,0.6-1.3,1.3-1.3s1.3,0.6,1.3,1.3c0,0.7-0.6,1.3-1.3,1.3S172.9,231.2,172.9,230.5z M173.4,246.7V234h1.7
		v12.8H173.4z"/>
	<path d="M187,246.7v-7.5c0-2.7-1.5-4-3.6-4s-3.6,1.3-3.6,4v7.5h-1.7v-7.5c0-3.8,2.2-5.6,5.2-5.6c2.1,0,3.7,1,4.6,2.8h0.1
		c0.8-1.8,2.5-2.8,4.6-2.8c2.9,0,5.2,1.8,5.2,5.6v7.5h-1.7v-7.5c0-2.7-1.5-4-3.6-4c-2.1,0-3.6,1.4-3.6,4v7.5H187z"/>
	<path d="M213.3,246.7h-1.6v-3h-0.1c-0.9,2-2.9,3.4-5.4,3.4c-3.6,0-6.6-2.6-6.6-6.7c0-3.9,2.8-6.7,6.9-6.7s6.8,2.8,6.8,6.8V246.7z
		 M211.6,240.3c0-2.9-2.1-5.1-5.1-5.1s-5.1,2.2-5.1,5.1s2.1,5.1,5.1,5.1S211.6,243.3,211.6,240.3z"/>
	<path d="M225.8,242c0,3.4-2,5-5,5c-3,0-5-1.7-5-5v-12.5h1.7v4.5h7.5v1.6h-7.5v6.5c0,2.3,1.3,3.4,3.3,3.4c2,0,3.3-1.1,3.3-3.4v-0.3
		h1.7V242z"/>
	<path d="M229.2,240.9c0.2,2.7,2.2,4.5,5.1,4.5c2,0,3.6-0.8,4.4-2.3h1.9c-1,2.3-3.3,3.9-6.3,3.9c-4,0-6.9-2.8-6.9-6.7
		s2.8-6.7,6.9-6.7s6.8,2.8,6.8,6.7v0.6H229.2z M229.3,239.3L229.3,239.3l10,0.1v-0.1c-0.4-2.4-2.3-4.1-5-4.1
		C231.6,235.2,229.7,236.9,229.3,239.3z"/>
	<path d="M251.1,237.4c-0.1-1.3-1.2-2.2-3.2-2.2c-2,0-3.2,0.9-3.2,2.4c0,3.3,8.4,0.2,8.4,5.4c0,2.3-2,4-5.2,4
		c-3.1,0-5.1-1.7-5.2-3.9h1.8c0.1,1.4,1.3,2.3,3.4,2.3c2.2,0,3.5-1,3.5-2.5c0-3.3-8.4-0.2-8.4-5.4c0-2.3,1.9-4,4.9-4
		s4.8,1.7,4.9,3.8H251.1z"/>
</g>
</svg>
