<?xml version="1.0" encoding="utf-8"?>
<!-- Generator: Adobe Illustrator 22.1.0, SVG Export Plug-In . SVG Version: 6.00 Build 0)  -->
<svg version="1.1" id="Layer_1" xmlns="http://www.w3.org/2000/svg" xmlns:xlink="http://www.w3.org/1999/xlink" x="0px" y="0px"
	 viewBox="0 0 545 371.5" style="enable-background:new 0 0 545 371.5;" xml:space="preserve">
<style type="text/css">
	.st0{fill:#2B2B2B;stroke:#FFFFFF;}
	.st1{fill:#00352D;stroke:#7D7D7D;stroke-width:0.5089;stroke-linejoin:bevel;}
	.st2{fill:#603E20;stroke:#7D7D7D;stroke-width:0.5089;stroke-linejoin:bevel;}
	.st3{fill:#00002A;stroke:#7D7D7D;stroke-width:0.5089;stroke-linejoin:bevel;}
	.st4{enable-background:new    ;}
	.st5{fill:#FFFFFF;stroke:#212121;stroke-width:0.365;}
</style>
<g id="Layer_3">
	<rect y="0.7" class="st0" width="545" height="370"/>
</g>
<g id="svg8" inkscape:version="0.92.1 r15371" sodipodi:docname="logo.svg" xmlns:cc="http://creativecommons.org/ns#" xmlns:dc="http://purl.org/dc/elements/1.1/" xmlns:inkscape="http://www.inkscape.org/namespaces/inkscape" xmlns:rdf="http://www.w3.org/1999/02/22-rdf-syntax-ns#" xmlns:sodipodi="http://sodipodi.sourceforge.net/DTD/sodipodi-0.dtd" xmlns:svg="http://www.w3.org/2000/svg">
	
		<sodipodi:namedview  bordercolor="#666666" borderopacity="1" gridtolerance="10" guidetolerance="10" id="namedview4522" inkscape:current-layer="svg8" inkscape:cx="563.66591" inkscape:cy="155.26234" inkscape:pageopacity="0" inkscape:pageshadow="2" inkscape:window-height="986" inkscape:window-maximized="1" inkscape:window-width="1920" inkscape:window-x="-11" inkscape:window-y="-11" inkscape:zoom="0.47345612" objecttolerance="10" pagecolor="#ffffff" showgrid="false">
		</sodipodi:namedview>
	<g id="layer2" transform="translate(51.372185,-80.050702)">
	</g>
	<g id="layer1" transform="translate(51.372185,-80.050702)">
	</g>
	<g id="layer3" transform="translate(51.372185,-80.050702)">
	</g>
	<g id="layer4" transform="translate(51.372185,-80.050702)">
	</g>
	<g id="layer5" transform="translate(51.372185,-80.050702)">
	</g>
	<g id="layer6" transform="translate(51.372185,-80.050702)">
	</g>
	<g id="layer7" transform="translate(51.372185,-80.050702)">
	</g>
	<g id="g4792" transform="translate(77.882572,-219.34122)">
	</g>
	<rect id="rect4728_1_" y="0.7" class="st1" width="141.8" height="370"/>
	<rect id="rect4728-3_1_" x="155.3" y="0.7" class="st2" width="141.8" height="370"/>
	<rect id="rect4728-5_1_" x="310.6" y="0.7" class="st3" width="234.4" height="370"/>
</g>
<g id="Layer_4">
	<g class="st4">
		<path class="st5" d="M13.1,185.1c10.6,6.3,26.6,11.9,43.4,11.9c21,0,32.7-10.2,32.7-25.4c0-14.1-9-22.4-31.9-30.9
			c-29.5-11-48.4-27.3-48.4-54.1c0-30.4,24.5-53.5,63.3-53.5c19.4,0,33.8,4.4,43.1,9.4l-8,27.3c-6.4-3.6-18.9-8.8-35.7-8.8
			c-20.8,0-29.8,11.6-29.8,22.4c0,14.4,10.4,21,34.3,30.6c31.1,12.1,46.3,28.4,46.3,55.2c0,29.8-21.8,55.8-68.1,55.8
			c-18.9,0-38.6-5.5-48.4-11.6L13.1,185.1z"/>
		<path class="st5" d="M147.1,222.1l31.7-83.3h12.3l31.7,83.3h-13.1l-7.6-20.8h-36.7l-7.7,20.8H147.1z M169.2,191.7h29.3l-14.7-39.8
			L169.2,191.7z"/>
		<path class="st5" d="M231.2,222.1v-83.3H246l17.7,51.3h0.1l17.3-51.3h15.5v83.3h-10.1v-71.5h-0.1l-18.1,53.9h-10.4l-18-52.4h-0.1
			v70H231.2z"/>
		<path class="st5" d="M313.8,138.8h12.3v50.6c0,8.8,1.3,15.2,4,19.2s7,5.9,13.1,5.9c6.3,0,10.9-2,13.7-5.9c2.8-4,4.2-10.5,4.2-19.5
			v-50.3h10.8v48.4c0,10.4-1.2,17.9-3.6,22.5c-5,9.7-13.4,14.5-25,14.5c-10.1,0-17.5-2.9-22.3-8.6s-7.2-14.5-7.2-26.4V138.8z"/>
		<path class="st5" d="M396.6,222.1v-83.3h54.3v9.6H409v25.3h35.6v9.6H409v29.2h44.8v9.6L396.6,222.1L396.6,222.1z"/>
		<path class="st5" d="M475.9,222.1v-83.3h12.3v73.7h43.3v9.6H475.9z"/>
	</g>
	<g class="st4">
		<path class="st5" d="M87,294.5l-11.7,40.1H49.6l43.7-141.5h31.8l44.3,141.5h-26.7l-12.3-40.1H87z M126.1,275l-10.7-34.9
			c-2.6-8.6-4.9-18.3-6.9-26.5h-0.4c-2,8.2-4,18.1-6.5,26.5L91.1,275H126.1z"/>
		<path class="st5" d="M170.7,334.6v-60.3h8.4l26.6,43.7h0.1v-43.7h7.3v60.3h-8.2l-26.8-44.1H178v44.1H170.7z"/>
		<path class="st5" d="M226.2,334.6v-6.9h15.6v-46.3h-15.6v-6.9h40.1v6.9h-15.6v46.3h15.6v6.9H226.2z"/>
		<path class="st5" d="M277,334.6v-60.1h10.7l12.7,37h0.1l12.5-37h11.2v60.1h-7.3V283h-0.1l-13.1,38.9h-7.5l-13-37.8h-0.1v50.5H277z
			"/>
		<path class="st5" d="M327.6,334.6l22.9-60.1h8.9l22.9,60.1h-9.4l-5.5-15h-26.5l-5.6,15H327.6z M343.5,312.6h21.2l-10.6-28.7
			L343.5,312.6z"/>
		<path class="st5" d="M404.9,334.6v-53.2h-22.3v-6.9h53.5v6.9h-22.3v53.2H404.9z"/>
		<path class="st5" d="M445.6,334.6v-60.1h39.2v6.9h-30.3v18.2h25.7v6.9h-25.7v21.1h32.4v6.9h-41.3V334.6z"/>
		<path class="st5" d="M535.8,275.9v8c-6.5-2.6-12.4-3.9-17.4-3.9c-8,0-12.1,2.8-12.1,8.4c0,2.3,0.8,4.1,2.3,5.5s4.3,2.8,8.4,4.3
			l5.7,2.1l5.4,1.9c8.4,3.1,12.6,8.3,12.6,15.6c0,5.6-2.1,10-6.4,13.3c-4.3,3.3-10,5-17.2,5c-5,0-11.5-1.1-19.4-3.3v-9.1
			c7.9,3.7,14.4,5.5,19.7,5.5c4.4,0,7.9-0.9,10.5-2.7c2.6-1.8,3.9-4.2,3.9-7.2c0-2.3-0.8-4.1-2.3-5.5c-1.6-1.3-4.8-2.9-9.6-4.8
			l-6-2.3c-5.9-2.3-10.1-4.6-12.4-7s-3.5-5.6-3.5-9.6c0-5.4,1.8-9.6,5.3-12.6s8.5-4.5,14.9-4.5C523.5,273,529.3,274,535.8,275.9z"/>
	</g>
</g>
</svg>
