<?xml version="1.0" encoding="utf-8"?>
<!-- Generator: Adobe Illustrator 23.0.1, SVG Export Plug-In . SVG Version: 6.00 Build 0)  -->
<svg version="1.1" id="Layer_1" xmlns="http://www.w3.org/2000/svg" xmlns:xlink="http://www.w3.org/1999/xlink" x="0px" y="0px"
	 viewBox="0 0 893.7 899.3" style="enable-background:new 0 0 893.7 899.3;" xml:space="preserve">
<style type="text/css">
	.st0{fill:#FAFAFA;}
	.st1{fill:#111111;}
	.st2{fill:#FFFF81;}
	.st3{fill:#612555;}
	.st4{fill:#FFFFD5;}
	.st5{fill:#FEBBC3;}
	.st6{fill:#437AB3;}
	.st7{fill:#02A9F7;}
	.st8{fill:none;stroke:#111111;stroke-width:0.75;}
	.st9{fill:none;stroke:#000000;stroke-width:0.75;}
	.st10{fill:none;stroke:#111111;stroke-width:3;stroke-linejoin:round;}
</style>
<title>logo</title>
<g id="Layer_5">
	<g id="path4525-1">
		<path class="st0" d="M446.8,887.3c-115.5,0.1-226.3-46.1-307.5-128.2c-170.1-171.3-170.1-447.7,0-618.9
			C309.5-29.5,585-29.1,754.7,141.1C836.3,223,882,334,881.7,449.7C882,625.2,777.5,783.9,616.2,853
			C562.6,875.7,505,887.5,446.8,887.3z"/>
		<g id="g4917" transform="translate(15.058629,10.142639)">
			<path id="path4634_11_" class="st1" d="M532.8,176.6l-27.4-40.8l-45.2-23.3l-43.4,8.5l-6.4-5.9l-4.8-4.3l-15-1.1l-12.6-8.6
				l-19.5-1l1.1-9.5l-2.3-33.1l20.8-9.2l12.6-0.8l23.8-10l16.9,4l13.2,8.5l30.5,4.5l48.4,11.9l37.3,39.1l32.4,28.4l-3,5.9l8.9,16.9
				l9.3,2.1l0.4,9.5l-5.1,6.4l41.1,109l5.7,94.8l-27,22.5l42,41.7l-26,54.5l-28.1,6.6l-28.1,31.6h-19.1l-6.6-4l-5.1,2.8v-13.4
				l-6.1-6.8l-6.3-15.3l-24.8-26.3l22.2-44.8l11.3-49l4.8-67l-10.4-55.8"/>
			<path id="path4605" class="st2" d="M300.6,299.8l7.7-27l-4.3-15.4l6-8.7l-6.7-2.2l-4.6-4.3l22.2-19l-0.2-10.1l-4.8-10.4l-4.3-6.7
				l-7.9,11.3l-7.5-4.3l-8.4,5.1l-4.6,5.1l-0.5,30.6l6.5,16.4l1.2,15.2l7.9,17.6L300.6,299.8z"/>
			<path id="path4524" class="st3" d="M647.6,508l45.3,88.6c0,0-18.3,121.9-20.7,121.9s-5.3,61.7-5.3,61.7l8.6,25.8l19.5-8.4
				l42.2-50.5l22.4-10l18.6-30.5l24.3-26.3l-18-101.4l-48.6-38.1L647.6,508z M86.5,594.2l-42.2,49.3l40.6,67.4l28.3,36.9l31.5,26.5
				l-1.4-21.2l6.3-37.6l-50.1-63.1L86.5,594.2z"/>
			<path id="path4550" class="st4" d="M501.7,232.9l-31.3,5.4l-18.2,9.2l10.6,28.8l8-9.7l2.6,6l7.2,6.1l8.7,6.3l5.4-2.2l13.5,2
				l24.9-13.3l14.6-10.2l7,5.3l5.8,14.3l6.8,5.6l2.9-10.7l2-23.5l-13.3-15.7L501.7,232.9z M524.4,482.9l8.3,9l5.8,24.4l-14.7,45.1
				l-26,34.7L465,608.6l-70.3,1l-42.4-18.3L311,534.4l-15.4,16.4L332,710.9l-6.8,104.2l9.5,59.9h182.9l67.1-316l-18-45l-27.1-29.6
				L524.4,482.9z M690.1,523.9l15.1,8.8l6.1,16.9l-2,46.1l12.3,80.7l20.1,38.7l7.2,9.1l0.3,15.3l13.1-10.9l17.8-14.4l3.6-78.3
				l1.4-25.2l-6-19.2l-7.2-14.1l-9.2-20.3l-24.4-22.3L713,529L690.1,523.9z M68.6,619.2l-11.2,42.6L55.3,672l24.9,32.7l0.4-24.6
				l1.9-5.7l8.8-17.8l-2.7-28.1L68.6,619.2z"/>
			<path id="path4580" class="st5" d="M282.6,855.7L495,876.4l171.2-62.1l-2.4-30.3l-4.3-54.9L643.1,627l-33.2-95.8L594,508
				l-40.5-36.1l-23.6-9.2l-7.7-4.3l-2.9,14.9l3.9,9.2l6.7,4.3l8.7,1l22.2,24.6l5.8,18.8V588l-37.1,52l-6.7,27.5l-5.8,15.4l-21.7,25
				l-10.6,27.5l2.4,16.9l-3.9,24.6l-5.8,23.1L463,866v6.3h-17.8L427.4,827l-30.8-79L384,705l-2.9-27.9l-7.7-20.7l-12-26.5l-4.3-18.8
				L347,591.4L326.8,576l-10.6,1.4l-6.3-10.1l7.7-31.8l-5.8-49.6l8.7-11.6l7.2-15.4l-4.3-12l-32.8,8.7l-22.2,21.7l-22.2,61.2
				L224,832.8L282.6,855.7z"/>
			<g id="g4792" transform="translate(-8.4666672,-11.15029)">
				<path id="path4630" class="st6" d="M136.2,773.4l119,73.5L252,659.3l14-104.5l20.2-57.3l44.8-39l-36.6-3.4l-46.2,5.3l-119,52.5
					l-25,53.5l-26.5,12l-17.3,15.9L122,734.4L136.2,773.4z"/>
				<path id="path4632" class="st6" d="M684.6,784.5l-0.5-51.5l13-35.2l6.3-43.8l-1.9-86.7l-30.3-59.2l-41.4-20.2l-29.4-24.1
					l-57.8-6.3l-12,14l65,42.9l13.5,25l13.5,84.8l21.7,48.6l10.1,94.9l12,55.9l17.6-6.5L684.6,784.5z"/>
				<path id="path4634_2_" class="st6" d="M-252.9,278.5"/>
			</g>
			<path id="path4607" class="st2" d="M349.1,263.2l1.7-7.2l2.2-2.9l11.8,1.7l24.3-10.1l28.2,10.1l1.9,6.7l-5.8,7.2l-6.3,2.4
				l-20.5,5.1l-3.4,3.9l-8.7-4.3l-7-7.7L349.1,263.2z"/>
			<path id="path4603" class="st2" d="M389.5,585.1l106.9-27l-1-11.6h-6.7L474.8,513l-2.5-6l-54.9-33.2l-46.7-10.6l-18.3-6.3
				l-2.9,19.7l-22.2,7.2l17.8,69.4L389.5,585.1z"/>
		</g>
		<path class="st7" d="M446.8,24c233.5,0,422.8,190.6,422.8,425.7S680.4,875.3,446.8,875.3S24,684.8,24,449.7S213.3,24,446.8,24
			 M446.8,0c-118.7-0.1-232.5,47.4-316,131.8c-174.7,175.9-174.7,459.9,0,635.8c174.8,174.4,457.9,174,632.3-0.9
			c83.9-84.1,130.9-198.2,130.5-317c0.4-180.3-107-343.4-272.8-414.3C565.8,11.9,506.6-0.1,446.8,0z"/>
		<path id="path4634_8_" class="st3" d="M574.9,248.8l-6.9-3.5h-55.1l-28.2,13.8v31.6l-13.4-24.6l-25.2,5.9l-8.9,20.8l-5.3,4.4
			l3.8-11.6l-4.5-6.8l4.5-6.1l-2.5-12.9l-11-13.1l-16.1,1.3l-6.3-5.7l-22.5,2.8l-14.2-4.2l-28.2,0.6l-11.4,12.9l3,13.4l-7.4,4.2
			l-2.7,5.9l-11.6-5.3l-7,10.2l-4.5,18.4h-0.8l-3.8-9.3l1.9-4.5l-7.8-6.1l1.1-9.8c0,0-7.2-14-6.4-13.6c0.8,0.4,0.2-34.7,0.2-34.7
			l11-8l4,3.2l11.6-5.9l1.5-7.6l4.4,1.9l1.5,12.3l2.3,7.4l-4.2,8.1l-15.7,8.3l-3.6,4.9l4.5,10.4l15.9-2.1l9.5-13.6l52.1-23.3h81.3
			l5.1,6.3l80.7-0.8l30.5,5.5l12.9,16.9l-1.7,6L578,252"/>
	</g>
</g>
<g>
	<path id="path4634_7_" class="st6" d="M421,245.5l-14.5,1.2l-5.6-5.1l-20.3,2.6l-12.8-3.7l-25.4,0.5"/>
	<path id="path4634_5_" class="st6" d="M561.7,248.9l-9.5-4.8h-49.6"/>
	<path id="path4634_4_" class="st6" d="M329.6,241.9l46.8-20.9h73.1l4.6,5.6l72.5-0.7l27.4,4.9l11.6,15.2l6.5,3.2"/>
</g>
<g id="g4867" transform="translate(-9.5626105,-12.053314)">
	<path id="path4668" class="st8" d="M369.5,272.2c11.3-5,25.1-18.4,52.8-2.4"/>
	<path id="path4670" class="st8" d="M506,275.6c28.6-13.5,42.4-0.3,46.7,4.6"/>
	<path id="path4668-5" class="st8" d="M367.3,283.9c11.6-5.9,30.6-26.3,56.2-3.1"/>
	<path id="path4670-6" class="st8" d="M500.9,286c29.9-18.2,41.6-6.4,51.8,5.1"/>
	<path id="path4702" class="st8" d="M434.5,372c-5.2-6.6,0.5-10.3,4.4-8.5c4,1.8,15.4,13.8,25.4,13.6c9.9-0.2,17.2-11.9,23.7-14
		s10.5,4.2,2.4,8.9"/>
	<path id="path4704" class="st8" d="M403.2,417.3c0,0,6.7,3.3,11.4,4.3c4.7,1,9-0.3,16.2,0s17,4.1,25.5,4.3
		c8.5,0.2,16.8-2.7,25.2-3.1c8.4-0.4,18.5,2.5,25,0.9c6.5-1.6,13.1-7.5,13.1-7.5"/>
	<path id="path4706" class="st8" d="M540.1,420.7c4.1-7.6,3.8-15.5-1.7-24"/>
	<path id="path4708" class="st9" d="M440.5,439.6c21.6,10.1,30.1,4.6,39.8,0.7"/>
	<path id="path4710" class="st9" d="M395.2,503.6c40.2,32.8,81.3,33.7,123.3,0.7"/>
	<path id="path4713" class="st1" d="M313.9,281.7l12.3-7.2l5.8,16h8.9c-2-35.4,2.4-38.5,40.1-39c32.9-0.4,62.4,11.4,64.1,18.5
		l2,14.6c-3.2,9.2-7.8,17.8-14.6,25.2l8.5,1.7c6.2-11.6,13.4-36.2,26.9-35.1c13.3,1.1,14.4,22,21.2,38.5l5.8-4.8
		c-6.4-6.3-8.7-14.7-11.6-22.8c-1.5-8.2-2.9-16.4,4.4-22.8c11.6-8,48.1-15.5,93-2.4c0,0,11.1,5.2,7.2,27.2l-1.4,9.2l7.8,3.1
		l5.1-18.1c3.5-9.9,1-18.5,0.3-27.6c-12.3-3.4-82.4-14.3-121.6,4.8h-27.9c-19.8-18.4-76.4-15.2-125.3-14.3l-19.4,22.5L313.9,281.7z"
		/>
	<path id="path4715" class="st1" d="M351.4,244.2c10.4-18.2,25.6-20.2,64-10.9c16.1,3.9,16.1,10.5,22,16.7
		c-14.1-1.1-24.2-4-36.5-5.9C388.6,242.1,374.2,241.2,351.4,244.2L351.4,244.2z"/>
	<path id="path4717" class="st1" d="M491.8,247.6c17-12.3,39.6-14.3,57.8-15.4c14.5,1.1,26,17.6,26,17.6
		C555,245.9,491.2,246.4,491.8,247.6L491.8,247.6z"/>
	<path id="path4732" class="st1" d="M404.6,270.1c4,4,4.1,10.4,0.3,14.5c-3.8,4.1-10.2,4.5-14.5,0.9s-5-10-1.5-14.4"/>
	<path id="path4732-9" class="st1" d="M535.2,277.2c3.1,3,3.9,7.6,2.2,11.6s-5.7,6.5-10,6.3s-8.1-2.9-9.5-7s-0.2-8.6,3.1-11.4"/>
</g>
<g id="Layer_3">
	<path id="path4525" class="st10" d="M446.8,24c233.5,0,422.8,189.9,422.8,424.3s-189.2,427-422.8,427S24,682.6,24,448.3
		S213.3,24,446.8,24z"/>
</g>
</svg>
