<?xml version="1.0" encoding="utf-8"?>
<!-- Generator: Adobe Illustrator 23.0.1, SVG Export Plug-In . SVG Version: 6.00 Build 0)  -->
<svg version="1.1"
	 id="svg8" xmlns:cc="http://creativecommons.org/ns#" xmlns:dc="http://purl.org/dc/elements/1.1/" xmlns:inkscape="http://www.inkscape.org/namespaces/inkscape" xmlns:rdf="http://www.w3.org/1999/02/22-rdf-syntax-ns#" xmlns:sodipodi="http://sodipodi.sourceforge.net/DTD/sodipodi-0.dtd" xmlns:svg="http://www.w3.org/2000/svg"
	 xmlns="http://www.w3.org/2000/svg" xmlns:xlink="http://www.w3.org/1999/xlink" x="0px" y="0px" viewBox="0 0 1010.4 899.4"
	 style="enable-background:new 0 0 1010.4 899.4;" xml:space="preserve">
<style type="text/css">
	.st0{fill:#111111;}
	.st1{fill:#FFFF81;}
	.st2{fill:#612555;}
	.st3{fill:#FFFFD5;}
	.st4{fill:#FEBBC3;}
	.st5{fill:#437AB3;}
	.st6{fill:none;stroke:#111111;stroke-width:0.75;}
	.st7{fill:none;stroke:#000000;stroke-width:0.75;}
</style>
<path id="path4634_9_" class="st0" d="M664.8,129.1l-27.4-40.8L592.2,65l-43.4,8.5l-6.4-5.9l-4.8-4.3l-15-1.1L510,53.6l-19.5-1
	l-11.9,0.5L476.3,20l33.8-19.2L522.7,0l23.8-10l16.9,4l13.2,8.5L607.1,7l48.4,11.9L692.8,58l32.4,28.4l-3,5.9l8.9,16.9l9.3,2.1
	l0.4,9.5l-5.1,6.4l41.1,109l5.7,94.8l-27,22.5l42,41.7l-26,54.5l-28.1,6.6l-28.1,31.6h-19.1l-6.6-4l-5.1,2.8v-13.4l-6.1-6.8
	l-6.3-15.3l-24.8-26.3l22.2-44.8l11.3-49l4.8-67l-10.4-55.8"/>
<g id="g4917" transform="translate(15.058629,10.142639)">
	<path id="path4605" class="st1" d="M376.4,247.9l8.6-30l-4.8-17.1l6.7-9.6l-7.5-2.4l-5.1-4.8l24.6-21.2l-0.3-11.3l-5.4-11.5
		l-4.8-7.5l-8.8,12.6l-8.3-4.8l-9.4,5.6l-5.1,5.6l-0.5,34l7.2,18.2l1.3,16.9l8.8,19.6L376.4,247.9z"/>
	<path id="path4524" class="st2" d="M762.3,479.4l50.4,98.6c0,0-20.4,135.5-23,135.5c-2.7,0-5.9,68.6-5.9,68.6l4.8,56.3l1.6,50.9
		l205.2-0.5l-25.2-87.9l10.7-59.5l-37.5-49.3l-28.9-133.9l-54.1-42.3L762.3,479.4z M138.2,575.3l-66.4,60.5l-17.1,20.9L21.9,691
		L3.2,767.1L-15,888.7h202l-1.6-27.3l17.7-85.7l-1.6-23.6l7-41.8l-55.7-70.2L138.2,575.3z"/>
	<path id="path4550" class="st3" d="M600,173.5l-34.9,6.1l-20.3,10.2l11.7,32l8.9-10.8l2.8,6.6l8,6.8l9.7,7l6.1-2.5l15,2.3
		l27.7-14.8L651,205l7.8,5.9l6.4,15.9l7.6,6.3l3.2-11.9l2.3-26.1l-14.8-17.4L600,173.5z M625.2,451.5l9.3,10l6.4,27.1l-16.3,50.2
		l-28.9,38.6l-36.4,13.9l-78.2,1.1L433.9,572l-46.1-63.2L370.7,527l40.5,178.1L403.6,821l10.6,66.7h203.4l74.6-351.5l-20.1-50
		l-30.1-33L625.2,451.5z M809.5,497.2l16.8,9.8l6.8,18.8l-2.2,51.2l13.7,89.8l22.3,43.1l8,10.1l0.3,17l11.1,14.6l-0.1,56.9l9.8,60.2
		l0.4,19.6h9.7l5.7-30.5l10.5-131.1l-2.2-26.8l-6.5-78.2l1.6-28l-6.7-21.4l-8.1-15.7L890.2,534l-27.1-24.8l-28.1-6.3L809.5,497.2z
		 M118.3,603.2l-12.4,47.4L93,714.2L80.9,853.6l-9.3,35.2l58.5,0.4l13.6-54.5l-13.1-98.2l1.1-65.6l2.1-6.3l9.8-19.8l-3-31.2
		L118.3,603.2z"/>
	<path id="path4580" class="st4" d="M306.2,889.2h472.5l4.3-69.1l-2.7-33.8l-4.8-61.1l-18.2-113.6l-37-106.6l-17.7-25.7l-45-40.2
		l-26.3-10.2l-8.6-4.8l-3.2,16.6l4.3,10.2l7.5,4.8l9.6,1.1l24.6,27.3l6.4,20.9v63.2l-41.3,57.9l-7.5,30.5l-6.4,17.1l-24.1,27.9
		L581,732.3l2.7,18.7l-4.3,27.3L573,804l-16.1,73.4v7h-19.8L517.3,834L483,746.2l-13.9-47.7l-3.2-31.1l-8.6-23L443.9,615l-4.8-20.9
		l-11.3-22L405.3,555l-11.8,1.6l-7-11.3l8.6-35.4l-6.4-55.2l9.6-12.9l8-17.1l-4.8-13.4l-36.4,9.6L340.5,445l-24.6,68l-24.6,327.3
		L306.2,889.2z"/>
	<g id="g4792" transform="translate(-8.4666672,-11.15029)">
		<path id="path4630" class="st5" d="M190.7,900.4h135l-4.3-253.9L337,530.2l22.5-63.7l49.8-43.4l-40.7-3.7l-51.4,5.9l-132.3,58.4
			L157,543.1l-29.5,13.4l-19.3,17.7L176.8,730L190.7,900.4z"/>
		<path id="path4632" class="st5" d="M781.1,899.9h22l7-56.3l-7.5-57.9l-0.5-57.3l14.5-39.1l7-48.7l-2.1-96.4l-33.8-65.9l-46.1-22.5
			L708.7,429l-64.3-7L631,437.5l72.3,47.7l15,27.9l15,94.3l24.1,54.1L768.7,767l13.4,62.1l7.5,16.6l-4.8,30.5L781.1,899.9z"/>
		<path id="path4634_2_" class="st5" d="M-240.2,222.9"/>
	</g>
	<path id="path4607" class="st1" d="M430.2,207.2l1.9-8l2.4-3.2l13.1,1.9l27.1-11.3l31.3,11.3l2.1,7.5l-6.4,8l-7,2.7l-22.8,5.6
		l-3.8,4.3l-9.6-4.8l-7.8-8.6L430.2,207.2z"/>
	<path id="path4603" class="st1" d="M475.2,565.2l118.9-30l-1.1-12.9h-7.5l-15.4-37.2l-2.8-6.7l-61.1-37l-52-11.8l-20.4-7l-3.2,22
		l-24.6,8l19.8,77.1L475.2,565.2z"/>
</g>
<path id="path4634_10_" class="st2" d="M663.5,185.5l-6.9-3.5h-55.1l-28.2,13.8v31.6l-13.4-24.6l-25.2,5.9l-8.9,20.8l-5.3,4.4
	l3.8-11.6l-4.5-6.8l4.5-6.1l-2.5-12.9l-11-13.1l-16.1,1.3l-6.3-5.7l-22.5,2.8l-14.2-4.2l-28.2,0.6l-11.4,12.9l3,13.4l-7.4,4.2
	l-2.7,5.9l-11.6-5.3l-7,10.2l-4.5,18.4h-0.8l-3.8-9.3l1.9-4.5l-7.8-6.1l1.1-9.8c0,0-7.2-14-6.4-13.6c0.8,0.4,0.2-34.7,0.2-34.7l11-8
	l4,3.2l11.6-5.9l1.5-7.6l4.4,1.9l1.5,12.3l2.3,7.4l-4.2,8.1l-15.7,8.3l-3.6,4.9l4.5,10.4l15.9-2.1l9.5-13.6l52.1-23.3h81.3l5.1,6.3
	l80.7-0.8l30.5,5.5l12.9,16.9l-1.7,6l-3.3-1.1"/>
<path id="path4634_7_" class="st5" d="M508.6,186.4l-16.1,1.3l-6.3-5.7l-22.5,2.8l-14.2-4.2l-28.2,0.6"/>
<path id="path4634_5_" class="st5" d="M665,190.2l-10.6-5.3h-55.1"/>
<path id="path4634_3_" class="st5" d="M719.8,133.3"/>
<path id="path4634_4_" class="st5" d="M406.9,182.4l52.1-23.3h81.3l5.1,6.3l80.7-0.8l30.5,5.5l12.9,16.9l7.2,3.6"/>
<g id="g4867" transform="translate(-9.5626105,-12.053314)">
	<path id="path4668" class="st6" d="M450.2,214.7c12.6-5.6,27.9-20.5,58.7-2.7"/>
	<path id="path4670" class="st6" d="M602,218.5c31.8-15.1,47.1-0.4,51.9,5.1"/>
	<path id="path4668-5" class="st6" d="M447.7,227.7c12.9-6.6,34.1-29.3,62.5-3.4"/>
	<path id="path4670-6" class="st6" d="M596.3,230c33.2-20.3,46.3-7.1,57.6,5.7"/>
	<path id="path4702" class="st6" d="M522.5,325.7c-5.8-7.3,0.5-11.4,4.9-9.5c4.4,2,17.2,15.4,28.2,15.2
		c11.1-0.2,19.1-13.2,26.3-15.5c7.3-2.3,11.7,4.6,2.7,9.8"/>
	<path id="path4704" class="st6" d="M487.7,376.1c0,0,7.4,3.7,12.7,4.7s10.1-0.3,18,0c7.9,0.3,18.9,4.5,28.4,4.7s18.7-3,28-3.4
		s20.6,2.7,27.8,0.9s14.6-8.3,14.6-8.3"/>
	<path id="path4706" class="st6" d="M639.9,379.8c4.5-8.4,4.2-17.3-1.9-26.7"/>
	<path id="path4708" class="st7" d="M529.1,400.9c24,11.2,33.4,5.1,44.3,0.8"/>
	<path id="path4710" class="st7" d="M478.8,472.1c44.7,36.5,90.4,37.5,137.1,0.8"/>
	<path id="path4713" class="st0" d="M388.4,225.3l13.6-8l6.4,17.8h9.8c-2.2-39.4,2.7-42.8,44.6-43.3c36.6-0.5,69.4,12.7,71.3,20.6
		l2.3,16.3c-3.6,10.3-8.6,19.8-16.3,28l9.5,1.9c6.9-12.9,14.9-40.2,29.9-39c14.8,1.2,16,24.5,23.5,42.8l6.4-5.3
		c-7.1-7.1-9.6-16.4-12.9-25.4c-1.7-9.1-3.2-18.2,4.9-25.4c12.9-8.9,53.4-17.2,103.4-2.7c0,0,12.4,5.7,8,30.3l-1.5,10.2l8.7,3.4
		l5.7-20.1c3.9-11,1.1-20.6,0.4-30.7c-13.7-3.8-91.6-16-135.2,5.3h-31.1c-22-20.4-85-16.9-139.4-15.9l-21.6,25L388.4,225.3z"/>
	<path id="path4715" class="st0" d="M430.1,183.5c11.6-20.2,28.5-22.4,71.1-12.1c17.9,4.3,18,11.7,24.5,18.6
		c-15.7-1.2-26.9-4.5-40.6-6.6C471.5,181.2,455.4,180.2,430.1,183.5L430.1,183.5z"/>
	<path id="path4717" class="st0" d="M586.3,187.3c19-13.6,44.1-15.9,64.3-17.1c16.2,1.3,28.9,19.6,28.9,19.6
		C656.5,185.4,585.6,186,586.3,187.3L586.3,187.3z"/>
	<path id="path4732" class="st0" d="M489.2,212.4c4.4,4.4,4.6,11.5,0.4,16.1s-11.3,5.1-16.1,1c-4.8-4-5.5-11.1-1.7-16"/>
	<path id="path4732-9" class="st0" d="M634.5,220.3c3.4,3.4,4.4,8.5,2.5,12.9s-6.3,7.2-11.1,7s-9-3.3-10.6-7.8s-0.2-9.6,3.4-12.7"/>
</g>
</svg>
