<?xml version="1.0" encoding="UTF-8" standalone="no"?>
<svg
   xmlns:dc="http://purl.org/dc/elements/1.1/"
   xmlns:cc="http://creativecommons.org/ns#"
   xmlns:rdf="http://www.w3.org/1999/02/22-rdf-syntax-ns#"
   xmlns:svg="http://www.w3.org/2000/svg"
   xmlns="http://www.w3.org/2000/svg"
   xmlns:sodipodi="http://sodipodi.sourceforge.net/DTD/sodipodi-0.dtd"
   xmlns:inkscape="http://www.inkscape.org/namespaces/inkscape"
   id="svg8"
   version="1.1"
   viewBox="0 0 356.43143 317.28528"
   height="317.28528mm"
   width="356.43143mm"
   sodipodi:docname="portrait-full.svg"
   inkscape:version="0.92.1 r15371">
  <sodipodi:namedview
     pagecolor="#ffffff"
     bordercolor="#666666"
     borderopacity="1"
     objecttolerance="10"
     gridtolerance="10"
     guidetolerance="10"
     inkscape:pageopacity="0"
     inkscape:pageshadow="2"
     inkscape:window-width="1920"
     inkscape:window-height="986"
     id="namedview4522"
     showgrid="false"
     inkscape:zoom="0.44990633"
     inkscape:cx="224.58885"
     inkscape:cy="599.59423"
     inkscape:window-x="-11"
     inkscape:window-y="-11"
     inkscape:window-maximized="1"
     inkscape:current-layer="svg8" />
  <defs
     id="defs2" />
  <metadata
     id="metadata5">
    <rdf:RDF>
      <cc:Work
         rdf:about="">
        <dc:format>image/svg+xml</dc:format>
        <dc:type
           rdf:resource="http://purl.org/dc/dcmitype/StillImage" />
        <dc:title />
      </cc:Work>
    </rdf:RDF>
  </metadata>
  <g
     transform="translate(73.215719,10.142639)"
     style="display:inline"
     id="layer2" />
  <g
     transform="translate(73.215719,10.142639)"
     style="display:inline"
     id="layer1" />
  <g
     transform="translate(73.215719,10.142639)"
     style="display:inline"
     id="layer3" />
  <g
     transform="translate(73.215719,10.142639)"
     style="display:inline"
     id="layer4" />
  <g
     transform="translate(73.215719,10.142639)"
     style="display:inline"
     id="layer5" />
  <g
     transform="translate(73.215719,10.142639)"
     style="display:inline"
     id="layer6" />
  <g
     transform="translate(73.215719,10.142639)"
     id="layer7" />
  <g
     transform="translate(73.215719,10.142639)"
     id="layer8">
    <g
       transform="translate(15.058629,10.142639)"
       id="g4917">
      <path
         style="display:inline;fill:#612555;fill-opacity:1;stroke:none;stroke-width:0.26458332px;stroke-linecap:butt;stroke-linejoin:miter;stroke-opacity:1"
         d="m 185.94712,152.42434 17.76481,34.77358 c 0,0 -7.18118,47.81415 -8.12612,47.81415 -0.94494,0 -2.07894,24.19025 -2.07894,24.19025 l 1.70067,19.84375 0.56689,17.95393 72.38266,-0.18912 -8.88267,-30.99398 3.78013,-20.97754 -13.22916,-17.38704 -10.20558,-47.24673 -19.08772,-14.93036 z m -220.171021,33.82844 -23.434227,21.35579 -6.047695,7.3706 -11.528494,12.0954 -6.614583,26.83608 -6.425448,42.90023 h 71.248363 l -0.56689,-9.63819 6.236831,-30.23793 -0.567407,-8.31578 2.4572151,-14.74121 -19.6551341,-24.75716 z"
         id="path4524" />
      <path
         style="display:inline;fill:#ffffd5;fill-opacity:1;stroke:none;stroke-width:0.26458332px;stroke-linecap:butt;stroke-linejoin:miter;stroke-opacity:1"
         d="m 128.72073,44.49707 -12.29434,2.13837 -7.14943,3.60805 4.1429,11.29233 3.14037,-3.80907 1.00201,2.33888 2.80655,2.40553 3.40754,2.4722 2.13837,-0.86868 5.27823,0.80202 9.75548,-5.21208 5.74642,-4.00906 2.73937,2.07119 2.27169,5.61309 2.67271,2.20504 1.13636,-4.20956 0.80151,-9.22115 -5.21157,-6.14691 z m 8.8868,98.08807 3.27422,3.54138 2.27169,9.55498 -5.75882,17.69349 -10.20558,13.60692 -12.85088,4.91391 -27.592635,0.37776 -16.63051,-7.18148 -16.253272,-22.30045 -6.047692,6.42545 14.290082,62.83648 -2.672705,40.89206 3.741891,23.52003 h 71.761511 l 26.32605,-124.01311 -7.08226,-17.63975 -10.62416,-11.62616 z m 65.0136,16.10289 5.91333,3.44113 2.40503,6.6151 -0.76792,18.07384 4.84415,31.67145 7.88428,15.20114 2.80654,3.57445 0.10025,6.01359 3.90881,5.14491 -0.0336,20.07888 3.47472,21.24779 0.13333,6.91587 h 3.40753 l 2.00453,-10.75802 3.70882,-46.23748 -0.76843,-9.45472 -2.30529,-27.59573 0.56793,-9.8888 -2.37195,-7.55044 -2.84014,-5.54592 -3.60804,-7.98452 -9.55498,-8.75296 -9.92239,-2.23862 z m -243.844021,37.38893 -4.38268,16.73335 -4.543391,22.45031 -4.276741,49.17786 -3.273702,12.42767 20.646283,0.13385 4.811078,-19.24328 -4.610571,-34.64542 0.378269,-23.15104 0.756029,-2.22054 3.448883,-6.96856 -1.062985,-11.00863 z"
         id="path4550" />
      <path
         style="display:inline;fill:#febbc3;fill-opacity:1;stroke:none;stroke-width:0.26458332px;stroke-linecap:butt;stroke-linejoin:miter;stroke-opacity:1"
         d="M 25.059799,297 H 191.74722 l 1.5119,-24.37947 -0.94494,-11.90625 -1.70089,-21.54464 -6.4256,-40.06547 -13.04018,-37.60863 -6.2366,-9.07143 -15.875,-14.17411 -9.26042,-3.59077 -3.02381,-1.7009 -1.13393,5.85864 1.51191,3.59077 2.64583,1.70089 3.40178,0.37798 8.69346,9.63839 2.26785,7.37054 v 22.30059 l -14.55208,20.41071 -2.64583,10.77233 -2.26786,6.04761 -8.50446,9.82739 -4.15774,10.77232 0.94494,6.61458 -1.51191,9.63839 -2.26785,9.07143 -5.66965,25.89137 v 2.45684 h -6.99256 l -6.992547,-17.76487 -12.095171,-30.99405 -4.913683,-16.81994 -1.13393,-10.96131 -3.02381,-8.12649 -4.7247,-10.39435 -1.70089,-7.37053 -3.96875,-7.74851 -7.9375,-6.04762 -4.15774,0.56696 -2.45684,-3.96875 3.0238,-12.47321 -2.26785,-19.46578 3.40178,-4.53571 2.83482,-6.04762 -1.70089,-4.7247 -12.85119,3.40178 -8.69345,8.50447 -8.69345,24.00149 -8.69346,115.47172 z"
         id="path4580" />
      <path
         style="display:inline;fill:#ffff81;fill-opacity:1;stroke:none;stroke-width:0.26458332px;stroke-linecap:butt;stroke-linejoin:miter;stroke-opacity:1"
         d="m 49.81726,70.743443 3.023812,-10.583333 -1.700895,-6.047621 2.362353,-3.401785 -2.645833,-0.850445 -1.795388,-1.700895 8.693451,-7.465028 -0.09449,-3.96875 -1.889882,-4.063243 -1.700892,-2.645834 -3.118303,4.44122 -2.929316,-1.700893 -3.307291,1.984375 -1.795386,1.984375 -0.188989,12.000743 2.55134,6.425597 0.472469,5.953125 3.118305,6.898063 z"
         id="path4605" />
      <g
         style="display:inline"
         id="g4792"
         transform="translate(-8.4666672,-11.15029)">
        <path
           id="path4630"
           d="m -10.205355,308.15029 h 47.625 l -1.51191,-89.58035 5.48066,-41.01042 7.9375,-22.48958 17.57589,-15.30804 -14.3631,-1.32291 -18.14285,2.07886 -46.68006,20.59971 -9.82738,20.97767 -10.39435,4.72471 -6.80357,6.2366 24.19048,54.99554 z"
           style="fill:#437ab3;fill-opacity:1;stroke:none;stroke-width:0.26458332px;stroke-linecap:butt;stroke-linejoin:miter;stroke-opacity:1" />
        <path
           id="path4632"
           d="m 198.05951,307.9613 h 7.74852 l 2.45684,-19.84375 -2.64583,-20.41071 -0.18899,-20.22172 5.10268,-13.79614 2.45684,-17.19791 -0.75595,-34.01786 -11.90625,-23.24553 -16.25297,-7.9375 -11.52828,-9.44941 -22.67857,-2.45684 -4.7247,5.48065 25.51339,16.81994 5.29167,9.82738 5.29166,33.26191 8.50447,19.08779 3.96875,37.23066 4.7247,21.92261 2.64583,5.85865 -1.70089,10.77232 z"
           style="fill:#437ab3;fill-opacity:1;stroke:none;stroke-width:0.26458332px;stroke-linecap:butt;stroke-linejoin:miter;stroke-opacity:1" />
        <path
           id="path4634"
           d="m 55.298605,75.856718 -1.33635,-3.274052 0.66818,-1.603615 -2.73952,-2.138157 0.40091,-3.474505 c 0,0 -2.53906,-4.944486 -2.27179,-4.81085 0.26727,0.133633 0.0668,-12.227581 0.0668,-12.227581 l 3.8754,-2.80633 1.40317,1.135894 4.07586,-2.071339 0.53454,-2.672693 1.5368,0.668173 0.53454,4.34313 0.8018,2.605876 -1.46998,2.873148 -5.54584,2.939965 -1.26953,1.737251 1.60362,3.674957 5.61266,-0.734991 3.34087,-4.81085 18.37478,-8.218538 h 28.664645 l 1.80407,2.204971 28.4642,-0.267268 10.7576,1.937705 4.54358,5.946745 2.53906,1.269532 0.46772,-30.468724 -3.60813,-2.27179 h -2.80633 l -34.81186,-14.23211 -5.07812,5.47903 -2.27179,-2.07134 1.46998,-2.20497 -3.87541,-4.6104001 -5.14493,-0.93545 -3.27406,-3.27405 -2.806325,0.53454 -4.07586,-4.00904 12.093945,-7.14946 1.26953,1.40316 3.94223,-3.40768 3.00678,3.4745 9.55488,-2.87315 6.88219,3.67496 19.91158,9.88897 19.9784,11.5594101 -0.33409,6.94901 -1.06908,2.07134 4.2095,5.946743 3.27405,0.734991 0.13364,3.340869 -1.80407,2.271791 -0.46773,31.805073 -3.20723,11.49259 h -4.27631 l -2.33861,-1.403165 -1.80407,1.00226 v -4.744032 l -2.13816,-2.405428 -2.20497,-5.412208 v -4.209494 l -2.87315,-6.080382 -3.74177,-1.870887 h -19.44386 l -9.95579,4.877671 v 11.158503 l -4.74403,-8.686261 -8.88671,2.071339 -3.14042,7.34991 -1.87089,1.536801 1.33635,-4.075859 -1.60362,-2.405427 1.60362,-2.138157 -0.86863,-4.543581 -3.8754,-4.610399 -5.679475,0.46772 -2.20497,-2.00452 -7.95127,1.00226 -5.0113,-1.469983 -9.95579,0.200454 -4.00905,4.543581 1.06908,4.744035 -2.60588,1.469982 -0.93544,2.071339 -4.07586,-1.870888 -2.47224,3.608139 -1.60362,6.481286 z"
           style="fill:#437ab3;fill-opacity:1;stroke:none;stroke-width:0.26458332px;stroke-linecap:butt;stroke-linejoin:miter;stroke-opacity:1" />
      </g>
      <path
         style="display:inline;fill:#ffff81;fill-opacity:1;stroke:none;stroke-width:0.26458332px;stroke-linecap:butt;stroke-linejoin:miter;stroke-opacity:1"
         d="m 68.810565,56.380347 0.661458,-2.83482 0.850445,-1.13393 4.630208,0.661458 9.5439,-3.96875 11.055804,3.96875 0.755952,2.645833 -2.267857,2.834823 -2.456844,0.944941 -8.031996,1.984375 -1.322917,1.511903 -3.401785,-1.700893 -2.740326,-3.023809 z"
         id="path4607" />
      <path
         style="display:inline;fill:#ffff81;fill-opacity:1;stroke:none;stroke-width:0.26458332px;stroke-linecap:butt;stroke-linejoin:miter;stroke-opacity:1"
         d="m 84.6795,182.6749 41.95536,-10.58333 -0.37798,-4.53571 h -2.64583 l -6.4256,-15.49703 10.01637,-11.71726 4.72471,-3.96875 -2.26786,-1.5119 -7.55952,5.66964 -11.90625,2.83482 -14.552093,-4.34673 -18.331842,-4.15773 -7.181548,-2.45686 -1.13393,7.74852 -8.693452,2.83482 6.992559,27.21429 z"
         id="path4603" />
      <g
         id="g4867"
         transform="translate(-9.5626105,-12.053314)">
        <path
           id="path4668"
           d="m 76.717753,63.249726 c 4.45164,-1.961148 9.83695,-7.23631 20.71338,-0.93545"
           style="fill:none;stroke:#111111;stroke-width:0.75;stroke-linecap:butt;stroke-linejoin:miter;stroke-miterlimit:4;stroke-dasharray:none;stroke-opacity:1" />
        <path
           id="path4670"
           d="m 130.29992,64.580693 c 11.21798,-5.312869 16.62688,-0.13062 18.30795,1.80407"
           style="fill:none;stroke:#111111;stroke-width:0.75;stroke-linecap:butt;stroke-linejoin:miter;stroke-miterlimit:4;stroke-dasharray:none;stroke-opacity:1" />
        <path
           id="path4668-5"
           d="m 75.853223,67.847173 c 4.56431,-2.32545 12.01901,-10.329897 22.04973,-1.20272"
           style="fill:none;stroke:#111111;stroke-width:0.75;stroke-linecap:butt;stroke-linejoin:miter;stroke-miterlimit:4;stroke-dasharray:none;stroke-opacity:1" />
        <path
           id="path4670-6"
           d="m 128.28667,68.664693 c 11.71698,-7.155407 16.33598,-2.50958 20.31247,2.00451"
           style="fill:none;stroke:#111111;stroke-width:0.75;stroke-linecap:butt;stroke-linejoin:miter;stroke-miterlimit:4;stroke-dasharray:none;stroke-opacity:1" />
        <path
           id="path4702"
           d="m 102.24199,102.4047 c -2.04782,-2.588337 0.18306,-4.035897 1.73725,-3.340867 1.55419,0.69503 6.05477,5.424487 9.95578,5.345397 3.90101,-0.0791 6.72947,-4.670027 9.28762,-5.479027 2.55815,-0.809 4.12606,1.633997 0.93544,3.474497"
           style="fill:none;stroke:#111111;stroke-width:0.75;stroke-linecap:butt;stroke-linejoin:miter;stroke-miterlimit:4;stroke-dasharray:none;stroke-opacity:1" />
        <path
           id="path4704"
           d="m 89.947593,120.17813 c 0,0 2.61687,1.29159 4.47676,1.67043 1.8599,0.37884 3.55059,-0.11827 6.347647,0 2.79706,0.11827 6.66964,1.59646 10.02261,1.67044 3.35297,0.074 6.59381,-1.05924 9.88897,-1.20271 3.29516,-0.14347 7.27344,0.96475 9.82216,0.33408 2.54872,-0.63067 5.14493,-2.93996 5.14493,-2.93996"
           style="fill:none;stroke:#111111;stroke-width:0.75;stroke-linecap:butt;stroke-linejoin:miter;stroke-miterlimit:4;stroke-dasharray:none;stroke-opacity:1" />
        <path
           id="path4706"
           d="m 143.66876,121.51448 c 1.59592,-2.96722 1.47709,-6.09774 -0.66817,-9.42126"
           style="fill:none;stroke:#111111;stroke-width:0.75;stroke-linecap:butt;stroke-linejoin:miter;stroke-miterlimit:4;stroke-dasharray:none;stroke-opacity:1" />
        <path
           id="path4708"
           d="m 104.58059,128.9312 c 8.47588,3.95768 11.79978,1.80931 15.63527,0.26727"
           style="fill:none;stroke:#000000;stroke-width:0.75;stroke-linecap:butt;stroke-linejoin:miter;stroke-miterlimit:4;stroke-dasharray:none;stroke-opacity:1" />
        <path
           id="path4710"
           d="m 86.807173,154.05454 c 15.772327,12.88263 31.890737,13.2202 48.375777,0.26727"
           style="fill:none;stroke:#000000;stroke-width:0.75;stroke-linecap:butt;stroke-linejoin:miter;stroke-miterlimit:4;stroke-dasharray:none;stroke-opacity:1" />
        <path
           id="path4713"
           d="m 54.935283,66.991493 4.81085,-2.80633 2.27179,6.28083 h 3.4745 c -0.78613,-13.884507 0.94885,-15.106027 15.74542,-15.288777 12.92636,-0.15965 24.476207,4.46739 25.146817,7.2707 l 0.80181,5.746287 c -1.27338,3.61735 -3.05031,6.98293 -5.74629,9.88897 l 3.34086,0.66818 c 2.43818,-4.55374 5.23939,-14.19928 10.53701,-13.76438 5.21074,0.42776 5.63956,8.64011 8.3055,15.10073 l 2.27179,-1.87089 c -2.5058,-2.48887 -3.40072,-5.78319 -4.54359,-8.95353 -0.60522,-3.22137 -1.14228,-6.429107 1.73726,-8.953527 4.55182,-3.14357 18.85568,-6.08455 36.48229,-0.93544 0,0 4.35996,2.02772 2.80633,10.690777 l -0.53454,3.60814 3.0736,1.20271 2.00452,-7.08264 c 1.38847,-3.876927 0.38317,-7.275097 0.13363,-10.824417 -4.84174,-1.33019 -32.31431,-5.62747 -47.70761,1.87089 h -10.95805 c -7.76173,-7.20082 -29.980617,-5.96456 -49.177587,-5.61266 l -7.61718,8.81989 z"
           style="fill:#111111;fill-opacity:1;stroke:none;stroke-width:0.26458332px;stroke-linecap:butt;stroke-linejoin:miter;stroke-opacity:1" />
        <path
           id="path4715"
           d="m 69.649573,52.261226 c 4.07823,-7.1351 10.05636,-7.91784 25.09281,-4.28257 6.313567,1.52639 6.333407,4.13267 8.641557,6.55043 -5.531477,-0.42041 -9.500437,-1.56999 -14.318847,-2.32316 -4.81841,-0.75317 -10.48626,-1.10993 -19.41552,0.0553 z"
           style="fill:#111111;fill-opacity:1;stroke:none;stroke-width:0.26458332px;stroke-linecap:butt;stroke-linejoin:miter;stroke-opacity:1" />
        <path
           id="path4717"
           d="m 124.7396,53.584136 c 6.68538,-4.81023 15.54669,-5.61565 22.67857,-6.04762 5.70046,0.44409 10.20536,6.89807 10.20536,6.89807 -8.09726,-1.50784 -33.12797,-1.29487 -32.88393,-0.85045 z"
           style="fill:#111111;fill-opacity:1;stroke:none;stroke-width:0.26458332px;stroke-linecap:butt;stroke-linejoin:miter;stroke-opacity:1" />
        <path
           d="m 90.504161,62.436262 a 4.1104908,4.1104908 0 0 1 0.128004,5.691415 4.1104908,4.1104908 0 0 1 -5.6814,0.360941 4.1104908,4.1104908 0 0 1 -0.593274,-5.661856"
           id="path4732"
           style="opacity:1;fill:#111111;fill-opacity:1;stroke:none;stroke-width:0.75;stroke-linecap:round;stroke-linejoin:round;stroke-miterlimit:4;stroke-dasharray:none;stroke-dashoffset:138.51968384;stroke-opacity:1;paint-order:stroke fill markers" />
        <path
           d="m 141.76382,65.220516 a 4.1104908,4.1104908 0 0 1 0.87303,4.552861 4.1104908,4.1104908 0 0 1 -3.92265,2.470531 4.1104908,4.1104908 0 0 1 -3.729,-2.754148 4.1104908,4.1104908 0 0 1 1.2077,-4.475737"
           id="path4732-9"
           style="opacity:1;fill:#111111;fill-opacity:1;stroke:none;stroke-width:0.75;stroke-linecap:round;stroke-linejoin:round;stroke-miterlimit:4;stroke-dasharray:none;stroke-dashoffset:138.51968384;stroke-opacity:1;paint-order:stroke fill markers" />
      </g>
    </g>
  </g>
</svg>
